<?xml version="1.0" standalone="no"?>
<!DOCTYPE svg PUBLIC "-//W3C//DTD SVG 1.1//EN" "http://www.w3.org/Graphics/SVG/1.1/DTD/svg11.dtd" >
<svg xmlns="http://www.w3.org/2000/svg">
<metadata>
<json>
<![CDATA[
{
	"fontFamily": "xrxs",
	"majorVersion": 1,
	"minorVersion": 0,
	"version": "Version 1.0",
	"fontId": "xrxs",
	"psName": "xrxs",
	"subFamily": "Regular",
	"fullName": "xrxs",
	"description": "Font generated by IcoMoon."
}
]]>
</json>
</metadata>
<defs>
<font id="xrxs" horiz-adv-x="1024">
<font-face units-per-em="1024" ascent="960" descent="-64" />
<missing-glyph horiz-adv-x="1024" />
<glyph unicode="&#x20;" horiz-adv-x="512" d="" />
<glyph unicode="&#xe900;" glyph-name="right" data-tags="right" d="M730.876 444.273l-402.53 402.53c-12.58 12.58-25.16 10.062-35.222 2.518s-10.062-25.16-2.518-35.222l387.442-387.442-384.924-384.924c-10.062-7.544-10.062-25.16 0-35.222 5.036-5.036 12.58-7.544 20.124-7.544 5.036 0 10.062 2.518 15.098 7.544l402.53 402.53c10.062 10.062 7.544 25.16 0 35.222z" />
<glyph unicode="&#xe901;" glyph-name="left" data-tags="left" d="M735.078 854.879c-7.695 10.26-25.639 10.26-35.899-2.565l-410.257-407.692c-5.13-5.13-7.695-10.26-7.695-17.944s5.13-12.825 7.695-17.944l410.257-410.257c5.13-5.13 12.825-7.695 20.509-7.695 5.13 0 10.26 2.565 15.39 7.695 10.26 7.695 10.26 25.639-2.565 35.899l-389.748 389.748 392.313 394.878c10.26 10.26 10.26 25.639 0 35.899z" />
<glyph unicode="&#xe902;" glyph-name="home" data-tags="home" d="M569.632 382.865h-119.882c-29.972 0-53.026-23.054-53.026-53.026v-219.010c0-13.83 9.224-23.054 23.054-23.054s23.054 9.224 23.054 23.054v219.010c0 4.612 2.306 6.918 6.918 6.918h119.882c4.612 0 6.918-2.306 6.918-6.918v-219.010c0-13.83 9.224-23.054 23.054-23.054s23.054 9.224 23.054 23.054v219.010c0 29.972-25.36 53.026-53.026 53.026zM984.604 458.945l-426.496 378.082c-25.36 23.054-64.55 23.054-92.216 0l-426.496-378.082c-16.136-13.83-23.054-36.884-13.83-57.632 6.918-20.748 25.36-34.578 48.414-34.578h55.326v-306.614c0-32.278 27.666-59.938 59.938-59.938h654.724c25.36 0 46.108 20.748 46.108 46.108v320.444h59.938c23.054 0 41.496 13.83 48.414 34.578 9.224 20.748 4.612 43.802-13.83 57.632zM956.938 417.443c0-2.306-2.306-4.612-6.918-4.612h-82.992c-13.83 0-23.054-9.224-23.054-23.054v-343.498h-654.724c-6.918 0-13.83 6.918-13.83 13.83v329.668c0 13.83-9.224 23.054-23.054 23.054h-78.38c-4.612 0-4.612 2.306-6.918 4.612 0 2.306 0 4.612 2.306 6.918l426.496 378.082c4.612 4.612 9.224 4.612 16.136 4.612 4.612 0 11.524-2.306 16.136-4.612v0l428.802-378.082c0-2.306 0-4.612 0-6.918zM694.126 760.947h66.856v-55.326c0-13.83 9.224-23.054 23.054-23.054s23.054 9.224 23.054 23.054v78.38c0 13.83-9.224 23.054-23.054 23.054h-89.91c-13.83 0-23.054-9.224-23.054-23.054s11.524-23.054 23.054-23.054z" />
<glyph unicode="&#xe903;" glyph-name="employee" data-tags="employee" d="M905.4 794.155h-786.8c-54.178 0-98.94-44.756-98.94-98.94v-537.096c0-54.178 44.756-98.94 98.94-98.94h786.8c54.178 0 98.94 44.756 98.94 98.94v537.096c0 54.178-44.756 98.94-98.94 98.94zM957.224 158.119c0-28.266-23.558-51.824-51.824-51.824h-786.8c-28.266 0-51.824 23.558-51.824 51.824v537.096c0 28.266 23.558 51.824 51.824 51.824h786.8c28.266 0 51.824-23.558 51.824-51.824v-537.096zM384.794 433.735c23.558 21.204 37.694 51.824 37.694 84.804 0 63.606-51.824 115.43-115.43 115.43s-115.43-51.824-115.43-115.43c0-32.98 14.136-63.606 37.694-84.804-56.538-23.558-96.586-77.736-98.94-138.988 0-16.49 2.354-32.98 4.714-49.47 2.354-11.776 16.49-21.204 28.266-16.49 11.776 2.354 21.204 16.49 16.49 28.266-2.354 11.776-4.714 23.558-4.714 35.334 2.354 58.892 51.824 106.008 113.076 106.008h35.334c61.246 0 113.076-47.116 113.076-106.008 0-11.776 0-23.558-4.714-35.334-2.354-11.776 4.714-25.912 16.49-28.266 2.354 0 4.714 0 7.068 0 9.422 0 18.844 7.068 23.558 16.49 4.714 16.49 7.068 32.98 4.714 49.47 0 63.606-42.402 117.784-98.94 138.988zM307.052 450.225c-37.694 0-68.314 30.626-68.314 68.314s30.626 68.314 68.314 68.314 68.314-30.626 68.314-68.314-30.626-68.314-68.314-68.314zM867.712 577.431h-277.97c-14.136 0-23.558-9.422-23.558-23.558s9.422-23.558 23.558-23.558h277.97c14.136 0 23.558 9.422 23.558 23.558s-9.422 23.558-23.558 23.558zM867.712 466.715h-277.97c-14.136 0-23.558-9.422-23.558-23.558s9.422-23.558 23.558-23.558h277.97c14.136 0 23.558 9.422 23.558 23.558 0 11.776-9.422 23.558-23.558 23.558zM867.712 353.639h-277.97c-14.136 0-23.558-9.422-23.558-23.558s9.422-23.558 23.558-23.558h277.97c14.136 0 23.558 9.422 23.558 23.558s-9.422 23.558-23.558 23.558z" />
<glyph unicode="&#xe904;" glyph-name="payroll" data-tags="payroll" d="M906.24 790.215h-788.474c-54.298 0-99.15-44.852-99.15-99.15v-526.436c0-54.298 44.852-99.15 99.15-99.15h788.474c54.298 0 99.15 44.852 99.15 99.15v524.076c0 56.658-44.852 101.51-99.15 101.51zM958.172 162.269c0-28.326-23.606-51.938-51.938-51.938h-788.474c-28.326 0-51.938 23.606-51.938 51.938v283.284h894.704v-283.284zM958.172 492.765h-892.344v82.624h894.704v-82.624zM958.172 620.247h-892.344v68.458c0 28.326 23.606 51.938 51.938 51.938h788.474c28.326 0 51.938-23.606 51.938-51.938v-68.458zM167.338 308.631h384.794c14.166 0 23.606 9.44 23.606 23.606s-9.44 23.606-23.606 23.606h-384.794c-14.166 0-23.606-9.44-23.606-23.606 0-11.806 11.806-23.606 23.606-23.606zM167.338 195.321h174.694c14.166 0 23.606 9.44 23.606 23.606s-9.44 23.606-23.606 23.606h-174.694c-14.166 0-23.606-9.44-23.606-23.606s11.806-23.606 23.606-23.606z" />
<glyph unicode="&#xe905;" glyph-name="insuranc" data-tags="insuranc" d="M1020.514 391.68c-46.651 233.262-247.256 405.877-485.185 415.205v25.659c0 13.995-9.328 23.329-23.329 23.329s-23.329-9.328-23.329-23.329v-25.659c-235.592-9.328-438.534-181.944-485.185-415.205-4.667-18.662 4.667-39.654 20.992-48.988 6.997-4.667 16.331-6.997 23.329-6.997 9.328 0 20.992 2.33 27.989 9.328 30.326 23.329 62.982 34.987 97.969 34.987 46.651 0 76.977-18.662 111.964-69.98 9.328-13.995 23.329-20.992 39.654-20.992s30.326 6.997 39.654 20.992c23.329 34.987 74.647 60.646 125.959 67.643v-291.577c0-23.329-20.992-44.321-44.321-44.321s-44.321 18.662-44.321 44.321c0 13.995-9.328 23.329-23.329 23.329s-23.329-9.328-23.329-23.329c0-48.988 39.654-90.972 90.972-90.972 48.988 0 90.972 39.654 90.972 90.972v291.577c51.318-6.997 102.636-34.987 125.959-67.643 9.328-13.995 23.329-20.992 39.654-20.992s30.326 6.997 39.654 20.992c32.656 51.318 65.313 69.98 111.964 69.98 34.987 0 67.643-11.664 95.639-32.656 9.328-6.997 18.662-9.328 27.989-9.328s16.331 2.33 23.329 6.997c13.995 9.328 20.992 27.989 18.662 46.651zM302.067 366.021c-32.656 37.323-69.98 60.646-128.295 60.646-46.651 0-88.641-16.331-123.628-44.321 39.654 195.938 200.605 347.562 401.21 375.551-58.315-51.318-142.29-165.618-149.287-391.884zM512 426.667c-58.315 0-123.628-25.659-163.282-62.982 4.667 156.285 48.988 251.923 86.305 305.572 30.326 44.321 60.646 67.643 76.977 76.977 16.331-9.328 46.651-32.656 76.977-76.977 37.323-53.648 81.644-149.287 86.305-305.572-39.654 37.323-104.967 62.982-163.282 62.982zM850.228 426.667c-55.985 0-95.639-23.329-128.295-60.646-6.997 226.264-93.302 340.565-149.287 391.884 200.605-25.659 361.557-177.277 401.21-375.551-34.987 27.989-76.977 44.321-123.628 44.321z" />
<glyph unicode="&#xe906;" glyph-name="approval" data-tags="approval" d="M408.554 62.447h-252.153c-32.328 0-58.188 25.863-58.188 58.188v689.647c0 32.328 25.863 58.188 58.188 58.188h553.873c32.328 0 58.188-25.863 58.188-58.188v-275.857c0-12.93 8.621-21.551 21.551-21.551s21.551 8.621 21.551 21.551v273.704c0 56.035-45.258 101.293-101.293 101.293h-553.873c-56.035 0-101.293-45.258-101.293-101.293v-689.647c0-56.035 45.258-101.293 101.293-101.293h252.153c12.93 0 21.551 8.621 21.551 21.551s-10.777 23.707-21.551 23.707zM514.156 691.75c0 12.93-8.621 21.551-21.551 21.551h-260.771c-12.93 0-21.551-8.621-21.551-21.551s8.621-21.551 21.551-21.551h260.771c10.777 0 21.551 8.621 21.551 21.551zM231.831 577.527c-12.93 0-21.551-8.621-21.551-21.551s8.621-21.551 21.551-21.551h131.465c12.93 0 21.551 8.621 21.551 21.551s-8.621 21.551-21.551 21.551h-131.465zM697.341 487.011c-150.86 0-271.548-122.844-271.548-271.548s122.844-271.548 271.548-271.548c150.86 0 271.548 122.844 271.548 271.548s-122.844 271.548-271.548 271.548zM697.341-12.983c-127.153 0-228.446 103.446-228.446 228.446s103.446 228.446 228.446 228.446 228.446-103.446 228.446-228.446-103.446-228.446-228.446-228.446zM796.478 297.358l-127.153-127.153-71.121 71.121c-8.621 8.621-21.551 8.621-30.172 0s-8.621-21.551 0-30.172l86.207-86.207c4.309-4.309 10.777-6.465 15.086-6.465s10.777 2.156 15.086 6.465l142.239 142.239c8.621 8.621 8.621 21.551 0 30.172s-21.551 8.621-30.172 0z" />
<glyph unicode="&#xe907;" glyph-name="check" data-tags="check" d="M698.224 488.011c-153.36 0-276.048-124.88-276.048-276.048s124.88-276.048 276.048-276.048c153.36 0 276.048 124.88 276.048 276.048s-122.688 276.048-276.048 276.048zM698.224-20.269c-129.26 0-232.232 105.16-232.232 232.232 0 129.26 105.16 232.232 232.232 232.232 129.26 0 232.232-105.16 232.232-232.232 2.192-129.26-102.972-232.232-232.232-232.232zM825.292 233.871h-105.16v138.024c0 13.144-8.764 21.908-21.908 21.908s-21.908-8.764-21.908-21.908v-155.552c0-4.38 0-6.572 0-10.956 2.192-8.764 10.956-15.336 21.908-15.336h127.068c13.144 0 21.908 8.764 21.908 21.908 0 10.956-8.764 21.908-21.908 21.908zM406.84 56.411h-256.332c-32.864 0-59.152 26.292-59.152 59.152v701.076c0 32.864 26.292 59.152 59.152 59.152h563.052c32.864 0 59.152-26.292 59.152-59.152v-280.428c0-13.144 8.764-21.908 21.908-21.908s21.908 8.764 21.908 21.908v278.24c0 56.964-46.008 102.972-102.972 102.972h-563.052c-56.964 0-102.972-46.008-102.972-102.972v-701.076c0-56.964 46.008-102.972 102.972-102.972h256.332c13.144 0 21.908 8.764 21.908 21.908s-8.764 24.1-21.908 24.1zM389.312 746.531c-8.764 8.764-21.908 8.764-30.672 0l-74.488-74.488-41.628 39.436c-8.764 8.764-21.908 8.764-30.672 0s-8.764-21.908 0-30.672l54.772-54.772c4.38-4.38 8.764-6.572 15.336-6.572s10.956 2.192 15.336 6.572l89.824 89.824c10.956 8.764 10.956 21.908 2.192 30.672zM358.64 520.875l-74.488-74.488-39.436 39.436c-8.764 8.764-21.908 8.764-30.672 0s-8.764-21.908 0-30.672l54.772-54.772c4.38-4.38 8.764-6.572 15.336-6.572s10.956 2.192 15.336 6.572l89.824 89.824c8.764 8.764 8.764 21.908 0 30.672s-24.1 8.764-30.672 0zM621.544 746.531l-74.488-74.488-39.436 39.436c-8.764 8.764-21.908 8.764-30.672 0s-8.764-21.908 0-30.672l54.772-54.772c4.38-4.38 8.764-6.572 15.336-6.572s10.956 2.192 15.336 6.572l89.824 89.824c8.764 8.764 8.764 21.908 0 30.672-6.572 8.764-21.908 8.764-30.672 0z" />
<glyph unicode="&#xe908;" glyph-name="assess" data-tags="assess" d="M943.872 701.715c-14.48 14.48-36.192 24.128-57.904 24.128h-747.928c-21.712 0-43.432-9.648-57.904-24.128s-24.128-36.192-24.128-57.904v-171.296c0-28.952 24.128-53.080 53.080-53.080h253.328c2.416 0 2.416 0 2.416-2.416 2.416-2.416 2.416-2.416 2.416-4.824 0-14.48 4.824-26.536 14.48-38.6 9.648-9.648 24.128-14.48 38.6-14.48h183.36c14.48 0 26.536 4.824 38.6 16.888 9.648 9.648 14.48 24.128 14.48 38.6 0 0 0 2.416 2.416 4.824 0 0 2.416 2.416 2.416 2.416h253.328c28.952 0 53.080 24.128 53.080 53.080v168.888c0 21.712-9.648 43.432-24.128 57.904zM919.744 472.507c0-2.416-2.416-4.824-4.824-4.824h-253.328c-14.48 0-26.536-4.824-36.192-14.48s-14.48-24.128-14.48-38.6c0 0 0-2.416-2.416-2.416-2.416-2.416-2.416-2.416-2.416-2.416h-183.36c0 0-2.416 0-2.416 2.416-4.824 0-4.824 0-4.824 2.416 0 14.48-4.824 26.536-14.48 38.6-9.648 9.648-24.128 14.48-38.6 14.48h-253.328c-2.416 0-4.824 2.416-4.824 4.824v171.296c0 9.648 2.416 16.888 9.648 24.128s14.48 9.648 24.128 9.648h747.928c9.648 0 16.888-2.416 24.128-9.648s9.648-14.48 9.648-24.128v-171.296zM914.92 380.827c-14.48 0-24.128-9.648-24.128-24.128v-267.808c0-9.648-2.416-16.888-9.648-24.128s-14.48-9.648-24.128-9.648h-690.024c-9.648 0-16.888 2.416-24.128 9.648s-9.648 14.48-9.648 24.128v267.808c0 14.48-9.648 24.128-24.128 24.128s-24.128-9.648-24.128-24.128v-267.808c0-21.712 9.648-43.432 24.128-57.904s36.192-24.128 57.904-24.128h690.024c21.712 0 43.432 9.648 57.904 24.128s24.128 36.192 24.128 57.904v267.808c0 12.064-9.648 24.128-24.128 24.128zM338.288 749.963c14.48 0 24.128 9.648 24.128 24.128v12.064c0 9.648 9.648 19.304 19.304 19.304h258.152c9.648 0 19.304-9.648 19.304-19.304v-12.064c0-14.48 9.648-24.128 24.128-24.128s24.128 9.648 24.128 24.128v12.064c0 36.192-31.368 67.552-67.552 67.552h-258.152c-36.192 0-67.552-31.368-67.552-67.552v-12.064c0-14.48 12.064-24.128 24.128-24.128z" />
<glyph unicode="&#xe909;" glyph-name="recruitment" data-tags="recruitment" d="M633.812 421.587c86.288 43.144 144.66 131.96 144.66 236.016 0 147.188-119.272 263.932-263.932 263.932-147.188 0-263.932-119.272-263.932-263.932 0-101.516 58.372-190.332 144.66-236.016-170.036-35.524-299.456-180.184-304.536-352.748 0-40.604 5.080-78.668 15.228-119.272 2.54-12.688 17.768-22.836 30.456-17.768 12.688 2.54 22.836 17.768 17.768 30.456-10.148 32.996-12.688 68.52-12.688 104.044 2.54 139.58 104.044 258.852 241.096 296.928 0-2.54 2.54-7.608 5.080-10.148l65.98-65.98-50.752-251.244c-2.54-10.148 2.54-20.308 10.148-25.376l88.828-65.98c5.080-2.54 10.148-5.080 15.228-5.080s10.148 2.54 15.228 5.080l88.828 65.98c7.608 5.080 12.688 15.228 10.148 25.376l-50.752 251.244 65.98 65.98c2.54 2.54 5.080 7.608 5.080 10.148 137.040-38.064 238.556-157.348 241.096-296.928 0-35.524-2.54-71.060-12.688-104.044-2.54-12.688 5.080-27.916 17.768-30.456 2.54 0 5.080 0 7.608 0 10.148 0 20.308 7.608 25.376 17.768 10.148 38.064 15.228 78.668 15.228 119.272-12.688 172.576-142.12 317.224-312.144 352.748zM298.82 657.603c0 119.272 96.436 213.18 213.18 213.18 119.272 0 213.18-96.436 213.18-213.18 0-119.272-96.436-213.18-213.18-213.18-119.272-2.54-213.18 93.896-213.18 213.18zM512-2.221l-60.912 45.684 43.144 213.18h32.996l43.144-213.18-58.372-45.684zM522.148 307.395h-17.768l-71.060 68.52c12.688 2.54 25.376 2.54 38.064 2.54h81.208c12.688 0 25.376 0 38.064-2.54l-68.52-68.52z" />
<glyph unicode="&#xe90a;" glyph-name="statistics" data-tags="statistics" d="M745.813 158.757c14.612 0 24.358 9.739 24.358 24.358v496.85c0 26.791 21.918 51.149 51.149 51.149h56.015c26.791 0 51.149-21.918 51.149-51.149v-496.85c0-14.612 9.739-24.358 24.358-24.358s24.358 9.739 24.358 24.358v496.85c0 53.582-43.843 99.858-99.858 99.858h-56.015c-53.582 0-99.858-43.843-99.858-99.858v-496.85c0-14.612 9.739-24.358 24.358-24.358zM409.709 158.757c14.612 0 24.358 9.739 24.358 24.358v401.865c0 26.791 21.918 51.149 51.149 51.149h56.015c26.791 0 51.149-21.918 51.149-51.149v-401.865c0-14.612 9.739-24.358 24.358-24.358s24.358 9.739 24.358 24.358v401.865c0 53.582-43.843 99.858-99.858 99.858h-56.015c-53.582 0-99.858-43.843-99.858-99.858v-401.865c0-14.612 12.179-24.358 24.358-24.358zM76.038 158.757c14.612 0 24.358 9.739 24.358 24.358v99.858c0 26.791 21.918 51.149 51.149 51.149h56.015c26.791 0 51.149-21.918 51.149-51.149v-99.858c0-14.612 9.739-24.358 24.358-24.358s24.358 9.739 24.358 24.358v99.858c0 53.582-43.843 99.858-99.858 99.858h-56.015c-53.582 0-99.858-43.843-99.858-99.858v-99.858c0-14.612 9.739-24.358 24.358-24.358zM1001.544 124.66h-979.088c-14.612 0-24.358-9.739-24.358-24.358s9.739-24.358 24.358-24.358h979.088c14.612 0 24.358 9.739 24.358 24.358 0 12.179-9.739 24.358-24.358 24.358z" />
<glyph unicode="&#xe90b;" glyph-name="notice" data-tags="notice" d="M302.801 566.133c-45.762 0-82.807-37.045-82.807-82.807s37.045-82.807 82.807-82.807 82.807 37.045 82.807 82.807c0 45.762-37.045 82.807-82.807 82.807zM302.801 444.101c-21.791 0-39.225 17.434-39.225 39.225s17.434 39.225 39.225 39.225 39.225-17.434 39.225-39.225c0-21.791-17.434-39.225-39.225-39.225zM512 566.133c-45.762 0-82.807-37.045-82.807-82.807s37.045-82.807 82.807-82.807 82.807 37.045 82.807 82.807-37.045 82.807-82.807 82.807zM512 444.101c-21.791 0-39.225 17.434-39.225 39.225s17.434 39.225 39.225 39.225 39.225-17.434 39.225-39.225c0-21.791-17.434-39.225-39.225-39.225zM721.199 566.133c-45.762 0-82.807-37.045-82.807-82.807s37.045-82.807 82.807-82.807 82.807 37.045 82.807 82.807c0 45.762-37.045 82.807-82.807 82.807zM721.199 444.101c-21.791 0-39.225 17.434-39.225 39.225s17.434 39.225 39.225 39.225 39.225-17.434 39.225-39.225c0-21.791-17.434-39.225-39.225-39.225zM869.379 825.451h-714.761c-56.659 0-104.598-47.942-104.598-104.598v-475.054c0-56.659 47.942-104.598 104.598-104.598h69.733v-91.524c0-8.717 4.357-15.254 10.897-19.611 2.18-2.18 6.537-2.18 10.897-2.18s8.717 2.18 13.074 4.357l161.257 111.138h446.726c56.659 0 104.598 47.942 104.598 104.598v472.874c2.18 58.836-45.762 104.598-102.421 104.598zM928.218 245.799c0-32.688-26.151-61.016-58.836-61.016h-453.263c-4.357 0-8.717-2.18-13.074-4.357l-132.929-91.524v74.090c0 13.074-8.717 21.791-21.791 21.791h-93.704c-32.688 0-61.016 28.328-61.016 61.016v475.054c0 32.688 28.328 61.016 61.016 61.016h712.581c32.688 0 61.016-28.328 61.016-61.016v-475.054z" />
<glyph unicode="&#xe90c;" glyph-name="edit2" data-tags="edit2" d="M512 938.667c-282.224 0-512-229.776-512-512s229.776-512 512-512 512 229.776 512 512-229.776 512-512 512zM512-62.855c-269.737 0-489.522 219.785-489.522 489.522s219.785 489.522 489.522 489.522 489.522-219.785 489.522-489.522-219.785-489.522-489.522-489.522zM666.849 454.14h-129.873v127.376c0 14.985-9.99 24.976-24.976 24.976h-7.493c-14.985 0-24.976-9.99-24.976-24.976v-127.376h-127.376c-14.985 0-24.976-9.99-24.976-24.976v-7.493c0-14.985 9.99-24.976 24.976-24.976h127.376v-127.376c0-14.985 9.99-24.976 24.976-24.976h7.493c14.985 0 24.976 9.99 24.976 24.976v127.376h127.376c14.985 0 24.976 9.99 24.976 24.976v7.493c2.498 14.985-9.99 24.976-22.478 24.976z" />
<glyph unicode="&#xe90d;" glyph-name="employee-add" data-tags="employee add" d="M512 938.667c-282.224 0-512-229.776-512-512s229.776-512 512-512 512 229.776 512 512-229.776 512-512 512zM512-62.855c-269.737 0-489.522 219.785-489.522 489.522s219.785 489.522 489.522 489.522 489.522-219.785 489.522-489.522-219.785-489.522-489.522-489.522zM694.322 231.857h-37.463c-29.971 0-54.946 24.976-54.946 54.946s24.976 54.946 54.946 54.946h34.966c-22.478 24.976-49.951 44.956-82.42 57.444-27.473-17.483-62.439-27.473-97.405-27.473s-69.932 9.99-97.405 27.473c-74.927-27.473-132.371-97.405-132.371-182.322v-2.498c0-32.468 27.473-57.444 57.444-57.444h342.166c7.493 0 14.985 2.498 22.478 4.995-4.995 9.99-9.99 19.98-9.99 32.468 0 0 0 37.463 0 37.463zM649.366 559.038c0-75.865-61.501-137.366-137.366-137.366s-137.366 61.501-137.366 137.366c0 75.865 61.501 137.366 137.366 137.366s137.366-61.501 137.366-137.366zM844.176 311.779h-69.932v69.932c0 12.488-9.99 24.976-24.976 24.976s-24.976-9.99-24.976-24.976v-69.932h-69.932c-12.488 0-24.976-9.99-24.976-24.976 0-12.488 9.99-24.976 24.976-24.976h69.932v-69.932c0-12.488 9.99-24.976 24.976-24.976s24.976 9.99 24.976 24.976v69.932h69.932c12.488 0 24.976 9.99 24.976 24.976-2.498 14.985-12.488 24.976-24.976 24.976z" />
<glyph unicode="&#xe90e;" glyph-name="calculator" data-tags="calculator" d="M512 938.667c-282.224 0-512-229.776-512-512s229.776-512 512-512 512 229.776 512 512-229.776 512-512 512zM512-62.855c-269.737 0-489.522 219.785-489.522 489.522s219.785 489.522 489.522 489.522 489.522-219.785 489.522-489.522-219.785-489.522-489.522-489.522zM641.873 379.213h-37.463v74.927h74.927v-62.439c7.493 2.498 14.985 2.498 24.976 2.498 14.985 0 29.971-2.498 44.956-7.493v234.771c0 24.976-19.98 44.956-44.956 44.956h-384.624c-24.976 0-44.956-19.98-44.956-44.956v-389.62c0-24.976 19.98-44.956 44.956-44.956h252.254c-7.493 17.483-12.488 37.463-12.488 59.941-2.498 57.444 32.468 107.395 82.42 132.371zM342.166 606.491h337.171v-94.907h-337.171v94.907zM417.093 244.345h-74.927v74.927h74.927v-74.927zM417.093 379.213h-74.927v74.927h74.927v-74.927zM546.966 244.345h-74.927v74.927h74.927v-74.927zM546.966 379.213h-74.927v74.927h74.927v-74.927zM701.815 361.73c-62.439 0-112.39-49.951-112.39-112.39s49.951-112.39 112.39-112.39 112.39 49.951 112.39 112.39c2.498 59.941-47.454 112.39-112.39 112.39zM746.771 229.36c9.99 0 14.985-4.995 14.985-14.985s-4.995-14.985-14.985-14.985h-27.473v-22.478c0-4.995 0-9.99-2.498-12.488-4.995-4.995-9.99-4.995-12.488-4.995-4.995 0-9.99 2.498-12.488 4.995s-4.995 7.493-4.995 12.488v22.478h-24.976c-9.99 0-14.985 4.995-14.985 14.985s4.995 14.985 14.985 14.985h24.976v4.995h-24.976c-9.99 0-14.985 4.995-14.985 14.985s4.995 14.985 14.985 14.985h9.99l-22.478 37.463c-4.995 9.99-2.498 17.483 4.995 22.478 2.498 2.498 7.493 2.498 9.99 2.498 4.995 0 7.493-2.498 9.99-7.493l29.971-49.951 27.473 47.454c2.498 2.498 4.995 9.99 12.488 7.493 2.498 0 4.995 0 9.99-2.498s7.493-7.493 7.493-9.99 0-7.493-2.498-9.99l-22.478-37.463h9.99c9.99 0 14.985-4.995 14.985-14.985s-4.995-14.985-14.985-14.985h-27.473v-4.995c0 0 27.473 0 27.473 0z" />
<glyph unicode="&#xe90f;" glyph-name="decrease" data-tags="decrease" d="M526.985 584.013v0c0 9.99-7.493 17.483-14.985 17.483s-14.985-7.493-14.985-14.985v-2.498c-104.898-7.493-194.81-82.42-214.79-187.317-2.498-12.488 2.498-24.976 12.488-29.971 4.995-2.498 9.99-4.995 14.985-4.995 7.493 0 12.488 2.498 17.483 4.995 7.493 4.995 19.98 12.488 34.966 12.488s27.473-4.995 39.961-27.473c4.995-7.493 14.985-12.488 24.976-12.488s19.98 4.995 24.976 12.488c7.493 12.488 24.976 19.98 42.459 24.976v-117.385c0-7.493-7.493-14.985-14.985-14.985s-14.985 7.493-14.985 14.985c0 7.493-7.493 14.985-14.985 14.985s-14.985-7.493-14.985-14.985c0-24.976 19.98-44.956 44.956-44.956s44.956 19.98 44.956 44.956v117.385c17.483-2.498 34.966-12.488 42.459-24.976 4.995-7.493 14.985-12.488 24.976-12.488s19.98 4.995 24.976 12.488c14.985 22.478 27.473 27.473 39.961 27.473 14.985 0 27.473-7.493 34.966-12.488 4.995-4.995 12.488-4.995 17.483-4.995s9.99 2.498 14.985 4.995c9.99 7.493 14.985 17.483 12.488 29.971-14.985 102.4-104.898 179.824-209.795 187.317zM512 938.667c-282.224 0-512-229.776-512-512s229.776-512 512-512 512 229.776 512 512-229.776 512-512 512zM512-62.855c-269.737 0-489.522 219.785-489.522 489.522s219.785 489.522 489.522 489.522 489.522-219.785 489.522-489.522-219.785-489.522-489.522-489.522zM437.073 706.394h49.951v-49.951c0-12.488 9.99-24.976 24.976-24.976 12.488 0 24.976 9.99 24.976 24.976v49.951h49.951c12.488 0 24.976 9.99 24.976 24.976s-9.99 24.976-24.976 24.976h-49.951v49.951c0 12.488-9.99 24.976-24.976 24.976-12.488 0-24.976-9.99-24.976-24.976v-49.951h-49.951c-12.488 0-24.976-9.99-24.976-24.976s12.488-24.976 24.976-24.976zM586.927 144.443h-149.854c-12.488 0-24.976-9.99-24.976-24.976 0-12.488 9.99-24.976 24.976-24.976h149.854c12.488 0 24.976 9.99 24.976 24.976-2.498 12.488-12.488 24.976-24.976 24.976z" />
<glyph unicode="&#xe910;" glyph-name="deduction" data-tags="deduction" d="M512 948.657c-282.224 0-512-229.776-512-512s229.776-512 512-512 512 229.776 512 512-229.776 512-512 512zM512-52.865c-269.737 0-489.522 219.785-489.522 489.522s219.785 487.024 489.522 487.024 489.522-219.785 489.522-489.522-219.785-487.024-489.522-487.024zM569.444 561.535c4.995 14.985 14.985 32.468 27.473 44.956 9.99 12.488 2.498 29.971-14.985 29.971h-142.361c-14.985 0-24.976-19.98-14.985-29.971 12.488-12.488 22.478-29.971 27.473-44.956h117.385zM347.161 366.726c0-107.395 82.42-147.356 164.839-147.356 79.922 0 164.839 39.961 164.839 147.356 0 89.912-74.927 129.873-99.902 162.341h-127.376c-24.976-34.966-102.4-72.429-102.4-162.341zM457.054 364.228c-9.99 0-17.483 7.493-17.483 17.483s7.493 17.483 17.483 17.483h17.483l-29.971 49.951c-4.995 9.99-4.995 19.98 4.995 24.976 4.995 2.498 9.99 2.498 12.488 2.498 4.995 0 7.493-4.995 12.488-9.99l39.961-64.937 37.463 64.937c2.498 2.498 4.995 9.99 14.985 9.99 2.498 0 7.493-2.498 9.99-2.498 4.995-4.995 7.493-7.493 7.493-12.488s0-7.493-4.995-12.488l-29.971-49.951h17.483c9.99 0 17.483-7.493 17.483-17.483s-7.493-17.483-17.483-17.483h-37.463v-12.488h37.463c9.99 0 17.483-7.493 17.483-17.483s-7.493-17.483-17.483-17.483h-37.463v-29.971c0-7.493 0-9.99-2.498-14.985-4.995-4.995-12.488-4.995-14.985-4.995-4.995 0-9.99 2.498-12.488 4.995s-4.995 7.493-4.995 14.985v29.971h-34.966c-9.99 0-17.483 7.493-17.483 17.483s7.493 17.483 17.483 17.483h37.463v9.99h-39.961v2.498zM719.298 703.896c-2.498 7.493-9.99 12.488-19.98 12.488-7.493-2.498-12.488-9.99-12.488-19.98l2.498-12.488c-49.951 37.463-109.893 57.444-172.332 59.941-82.42 2.498-159.844-27.473-217.288-82.42-7.493-4.995-7.493-14.985 0-22.478 4.995-7.493 14.985-7.493 22.478 0 52.449 49.951 122.38 77.424 194.81 74.927s139.863-32.468 189.815-84.917c2.498-2.498 7.493-4.995 12.488-4.995 2.498 0 4.995 0 7.493 2.498 7.493 2.498 9.99 9.99 7.493 17.483l-14.985 59.941zM699.317 239.35c-109.893-102.4-282.224-97.405-387.122 12.488-4.995 4.995-12.488 7.493-19.98 2.498-7.493-2.498-9.99-9.99-7.493-17.483l17.483-67.434c2.498-7.493 9.99-12.488 19.98-12.488 7.493 2.498 12.488 9.99 12.488 19.98l-4.995 17.483c54.946-39.961 117.385-59.941 182.322-59.941 74.927 0 149.854 27.473 209.795 82.42 7.493 4.995 7.493 14.985 0 22.478-4.995 4.995-17.483 4.995-22.478 0z" />
<glyph unicode="&#xe911;" glyph-name="security" data-tags="security" d="M512 938.667c-282.224 0-512-229.776-512-512s229.776-512 512-512 512 229.776 512 512-229.776 512-512 512zM512-62.855c-269.737 0-489.522 219.785-489.522 489.522s219.785 489.522 489.522 489.522 489.522-219.785 489.522-489.522-219.785-489.522-489.522-489.522zM701.815 364.228c-62.439 0-112.39-49.951-112.39-112.39s49.951-112.39 112.39-112.39 112.39 49.951 112.39 112.39c2.498 62.439-47.454 112.39-112.39 112.39zM786.732 234.355c-2.498 0-4.995-2.498-4.995-2.498-2.498 0-4.995 0-7.493 2.498s-7.493 4.995-14.985 4.995c-4.995 0-9.99-2.498-14.985-9.99-2.498-2.498-4.995-4.995-9.99-4.995s-7.493 2.498-9.99 4.995c-2.498 4.995-9.99 7.493-17.483 9.99v-44.956c0-9.99-7.493-17.483-17.483-17.483s-17.483 7.493-17.483 17.483c0 2.498 2.498 4.995 4.995 4.995s4.995-2.498 4.995-4.995c0-2.498 2.498-4.995 4.995-4.995s4.995 2.498 4.995 4.995v44.956c-7.493-2.498-12.488-4.995-17.483-9.99-2.498-2.498-4.995-4.995-9.99-4.995s0 2.498-2.498 4.995c-4.995 7.493-9.99 9.99-14.985 9.99-7.493 0-9.99-2.498-14.985-4.995-2.498-2.498-4.995-2.498-7.493-2.498s-4.995 0-4.995 2.498c-4.995 2.498-4.995 7.493-4.995 12.488 7.493 39.961 42.459 69.932 82.42 72.429v0c0 2.498 2.498 4.995 4.995 4.995s4.995-2.498 4.995-4.995v0c39.961-2.498 74.927-32.468 82.42-72.429 2.498-4.995 2.498-9.99-2.498-12.488zM641.873 381.711h-37.463v74.927h74.927v-62.439c7.493 2.498 14.985 2.498 24.976 2.498 14.985 0 29.971-2.498 44.956-7.493v234.771c0 24.976-19.98 44.956-44.956 44.956h-384.624c-24.976 0-44.956-19.98-44.956-44.956v-389.62c0-24.976 19.98-44.956 44.956-44.956h252.254c-7.493 17.483-12.488 37.463-12.488 59.941-2.498 59.941 32.468 109.893 82.42 132.371zM342.166 611.487h337.171v-94.907h-337.171v94.907zM417.093 249.34h-74.927v74.927h74.927v-74.927zM417.093 381.711h-74.927v74.927h74.927v-74.927zM546.966 249.34h-74.927v74.927h74.927v-74.927zM546.966 381.711h-74.927v74.927h74.927v-74.927z" />
<glyph unicode="&#xe912;" glyph-name="allowance" data-tags="allowance" d="M512 938.667c-282.224 0-512-229.776-512-512s229.776-512 512-512 512 229.776 512 512-229.776 512-512 512zM512-62.855c-269.737 0-489.522 219.785-489.522 489.522s219.785 489.522 489.522 489.522 489.522-219.785 489.522-489.522-219.785-489.522-489.522-489.522zM766.751 491.604h-24.976c-12.488 0-22.478 9.99-27.473 19.98l-14.985 34.966c-4.995 9.99-2.498 24.976 4.995 32.468l17.483 17.483c7.493 7.493 9.99 22.478 0 29.971l-29.971 29.971c-7.493 7.493-22.478 7.493-29.971 0l-17.483-17.483c-9.99-9.99-22.478-9.99-32.468-4.995l-34.966 14.985c-9.99 4.995-19.98 14.985-19.98 27.473v24.976c0 12.488-9.99 19.98-19.98 19.98h-42.459c-12.488 0-19.98-9.99-19.98-19.98v-24.976c0-12.488-9.99-22.478-19.98-27.473l-34.966-14.985c-9.99-4.995-24.976-2.498-32.468 4.995l-17.483 17.483c-7.493 7.493-22.478 7.493-29.971 0l-29.971-29.971c-7.493-7.493-7.493-22.478 0-29.971l17.483-17.483c9.99-9.99 9.99-22.478 4.995-32.468l-14.985-34.966c-4.995-9.99-14.985-19.98-27.473-19.98h-24.976c-12.488 0-19.98-9.99-19.98-19.98v-44.956c0-12.488 9.99-19.98 19.98-19.98h24.976c12.488 0 22.478-9.99 27.473-19.98l14.985-34.966c4.995-9.99 2.498-24.976-4.995-32.468l-17.483-17.483c-7.493-7.493-7.493-22.478 0-29.971l29.971-29.971c7.493-7.493 22.478-7.493 29.971 0l17.483 17.483c9.99 9.99 22.478 9.99 32.468 4.995l34.966-14.985c9.99-4.995 19.98-14.985 19.98-27.473v-24.976c0-12.488 9.99-19.98 19.98-19.98h42.459c2.498 0 4.995 0 7.493 0-9.99 12.488-14.985 27.473-14.985 44.956v122.38c-2.498 0-7.493 0-9.99 0-59.941 0-107.395 47.454-107.395 104.898 0 59.941 47.454 104.898 104.898 107.395 54.946 0 97.405-39.961 104.898-92.41h114.888c19.98 0 39.961-9.99 52.449-24.976v29.971c-2.498 12.488-12.488 22.478-22.478 22.478zM664.351 289.301c-19.98 0-34.966 14.985-37.463 32.468-24.976 7.493-44.956 19.98-62.439 34.966v-139.863c0-17.483 14.985-32.468 32.468-32.468h137.366c17.483 0 32.468 14.985 32.468 32.468v139.863c-14.985-17.483-37.463-29.971-62.439-34.966-4.995-19.98-19.98-32.468-39.961-32.468zM664.351 366.726c14.985 0 27.473-7.493 34.966-19.98 29.971 7.493 52.449 24.976 64.937 47.454-2.498 14.985-14.985 24.976-29.971 24.976h-137.366c-14.985 0-27.473-9.99-29.971-24.976 12.488-22.478 37.463-39.961 64.937-47.454 4.995 12.488 17.483 19.98 32.468 19.98z" />
<glyph unicode="&#xe913;" glyph-name="cost" data-tags="cost" d="M512 938.667c-282.224 0-512-229.776-512-512s229.776-512 512-512 512 229.776 512 512-229.776 512-512 512zM512-62.855c-269.737 0-489.522 219.785-489.522 489.522s219.785 489.522 489.522 489.522 489.522-219.785 489.522-489.522-219.785-489.522-489.522-489.522zM581.932 239.35c0 14.985 4.995 27.473 14.985 37.463-9.99 12.488-14.985 29.971-14.985 54.946 0 27.473 9.99 49.951 29.971 67.434h-2.498c-27.473-17.483-62.439-27.473-97.405-27.473s-69.932 9.99-97.405 27.473c-74.927-27.473-132.371-97.405-132.371-182.322v-2.498c0-32.468 27.473-57.444 57.444-57.444h289.717c-29.971 19.98-47.454 47.454-47.454 82.42zM649.366 559.038c0-75.865-61.501-137.366-137.366-137.366s-137.366 61.501-137.366 137.366c0 75.865 61.501 137.366 137.366 137.366s137.366-61.501 137.366-137.366zM766.751 346.745c7.493-4.995 12.488-9.99 12.488-14.985 0-12.488 9.99-24.976 24.976-24.976 12.488 0 24.976 9.99 24.976 24.976 0 37.463-32.468 64.937-82.42 69.932v4.995c0 12.488-9.99 24.976-24.976 24.976s-24.976-9.99-24.976-24.976v-4.995c-49.951-7.493-82.42-32.468-82.42-69.932 0-52.449 44.956-62.439 82.42-67.434v-47.454c-19.98 4.995-34.966 12.488-34.966 22.478 0 12.488-9.99 24.976-24.976 24.976-12.488 0-24.976-9.99-24.976-24.976 0-24.976 14.985-44.956 39.961-57.444 12.488-7.493 27.473-9.99 44.956-12.488v-4.995c0-12.488 9.99-24.976 24.976-24.976s24.976 9.99 24.976 24.976v4.995c49.951 7.493 82.42 34.966 82.42 69.932 0 52.449-44.956 62.439-82.42 67.434v44.956c7.493 0 14.985-2.498 19.98-4.995zM696.82 311.779c-27.473 2.498-34.966 7.493-34.966 19.98 0 9.99 14.985 17.483 34.966 22.478v-42.459zM779.239 239.35c0-9.99-14.985-17.483-34.966-22.478v42.459c27.473-2.498 34.966-7.493 34.966-19.98z" />
<glyph unicode="&#xe914;" glyph-name="work" data-tags="work" d="M512 938.667c-282.224 0-512-229.776-512-512s229.776-512 512-512 512 229.776 512 512-229.776 512-512 512zM512-62.855c-269.737 0-489.522 219.785-489.522 489.522s219.785 489.522 489.522 489.522 489.522-219.785 489.522-489.522-219.785-489.522-489.522-489.522zM664.351 426.667c-69.932 0-124.878-54.946-124.878-124.878s54.946-124.878 124.878-124.878 124.878 54.946 124.878 124.878-54.946 124.878-124.878 124.878zM731.785 281.808h-67.434c-7.493 0-17.483 4.995-19.98 14.985 0 2.498 0 4.995 0 7.493v82.42c0 9.99 9.99 19.98 19.98 19.98s19.98-9.99 19.98-19.98v-64.937h47.454c9.99 0 19.98-9.99 19.98-19.98s-7.493-19.98-19.98-19.98zM504.507 341.75c-54.946 4.995-97.405 49.951-97.405 104.898 0 59.941 47.454 104.898 104.898 107.395 54.946 0 97.405-39.961 104.898-92.41 14.985 4.995 29.971 7.493 47.454 7.493 47.454 0 89.912-19.98 119.883-49.951 2.498 2.498 2.498 4.995 2.498 9.99v42.459c0 12.488-7.493 22.478-19.98 22.478h-24.976c-12.488 0-22.478 9.99-27.473 19.98l-14.985 34.966c-4.995 9.99-2.498 24.976 4.995 32.468l17.483 17.483c7.493 7.493 9.99 22.478 0 29.971l-29.971 29.971c-7.493 7.493-22.478 7.493-29.971 0l-17.483-17.483c-9.99-9.99-22.478-9.99-32.468-4.995l-34.966 14.985c-9.99 4.995-19.98 14.985-19.98 27.473v22.478c0 12.488-9.99 19.98-19.98 19.98h-42.459c-12.488 0-19.98-9.99-19.98-19.98v-24.976c0-12.488-9.99-22.478-19.98-27.473l-34.966-14.985c-9.99-4.995-24.976-2.498-32.468 4.995l-17.483 17.483c-7.493 7.493-22.478 7.493-29.971 0l-29.971-29.971c-7.493-7.493-7.493-22.478 0-29.971l17.483-17.483c9.99-9.99 9.99-22.478 4.995-32.468l-14.985-34.966c-4.995-9.99-14.985-19.98-27.473-19.98h-24.976c-12.488 0-19.98-9.99-19.98-19.98v-44.956c0-12.488 9.99-19.98 19.98-19.98h24.976c12.488 0 22.478-9.99 27.473-19.98l14.985-34.966c4.995-9.99 2.498-24.976-4.995-32.468l-17.483-17.483c-7.493-7.493-7.493-22.478 0-29.971l29.971-29.971c7.493-7.493 22.478-7.493 29.971 0l17.483 17.483c9.99 9.99 22.478 9.99 32.468 4.995l34.966-14.985c9.99-4.995 19.98-14.985 19.98-27.473v-24.976c0-12.488 9.99-19.98 19.98-19.98h42.459c7.493 0 14.985 4.995 17.483 9.99-29.971 29.971-49.951 72.429-49.951 119.883-4.995 9.99-2.498 22.478 0 34.966z" />
<glyph unicode="&#xe915;" glyph-name="wages" data-tags="wages" d="M512 938.667c-282.224 0-512-229.776-512-512s229.776-512 512-512 512 229.776 512 512-229.776 512-512 512zM512-62.855c-269.737 0-489.522 219.785-489.522 489.522s219.785 489.522 489.522 489.522 489.522-219.785 489.522-489.522-219.785-489.522-489.522-489.522zM759.259 616.482h-232.273c-7.493 0-17.483 4.995-22.478 9.99l-19.98 27.473c-4.995 7.493-12.488 9.99-22.478 9.99h-197.307c-27.473 0-49.951-22.478-49.951-49.951v-382.127c0-27.473 22.478-49.951 49.951-49.951h492.020c27.473 0 49.951 22.478 49.951 49.951v337.171c0 27.473-19.98 47.454-47.454 47.454zM711.805 341.75c0-7.493-7.493-14.985-19.98-14.985h-194.81c-9.99 0-19.98 4.995-19.98 14.985v79.922h234.771v-79.922zM711.805 454.14h-232.273v22.478c0 9.99 7.493 19.98 19.98 19.98h194.81c9.99 0 19.98-7.493 19.98-19.98l-2.498-22.478z" />
<glyph unicode="&#xe916;" glyph-name="ruzhi2" data-tags="ruzhi2" d="M512 938.667c-282.224 0-512-229.776-512-512s229.776-512 512-512 512 229.776 512 512-229.776 512-512 512zM512-60.358c-269.737 0-489.522 217.288-489.522 487.024s219.785 489.522 489.522 489.522 489.522-219.785 489.522-489.522-219.785-487.024-489.522-487.024zM694.322 231.857h-37.463c-29.971 0-54.946 24.976-54.946 54.946s24.976 54.946 54.946 54.946h34.966c-22.478 24.976-49.954 44.956-82.42 57.444-27.473-17.483-62.439-27.473-97.405-27.473s-69.932 9.99-97.405 27.473c-74.927-27.473-132.371-97.405-132.371-182.322v-2.498c0-32.468 27.473-57.444 57.444-57.444h342.166c7.493 0 14.985 2.498 22.478 4.995-4.995 9.99-9.99 19.98-9.99 32.468v37.463zM649.366 559.039c0-75.865-61.501-137.366-137.366-137.366s-137.366 61.501-137.366 137.366c0 75.865 61.501 137.366 137.366 137.366s137.366-61.501 137.366-137.366zM844.176 311.779h-69.932v69.932c0 12.488-9.99 24.976-24.976 24.976-12.488 0-24.976-9.99-24.976-24.976v-69.932h-69.932c-12.488 0-24.976-9.99-24.976-24.976 0-12.488 9.99-24.976 24.976-24.976h69.932v-69.932c0-12.488 9.99-24.976 24.976-24.976 12.488 0 24.976 9.99 24.976 24.976v69.932h69.932c12.488 0 24.976 9.99 24.976 24.976-2.498 14.985-12.488 24.976-24.976 24.976z" />
<glyph unicode="&#xe917;" glyph-name="record" data-tags="record" d="M512 938.667c-282.224 0-512-229.776-512-512s229.776-512 512-512 512 229.776 512 512-229.776 512-512 512zM512-62.855c-269.737 0-489.522 219.785-489.522 489.522s219.785 489.522 489.522 489.522 489.522-219.785 489.522-489.522-219.785-489.522-489.522-489.522zM646.868 421.672h-37.463v49.951c0 7.493-4.995 12.488-12.488 12.488s-12.488-4.995-12.488-12.488v-62.439c0-2.498 0-4.995 0-4.995 2.498-4.995 7.493-9.99 12.488-9.99h49.951c7.493 0 12.488 4.995 12.488 12.488 0 9.99-4.995 14.985-12.488 14.985zM759.259 616.482h-232.273c-7.493 0-17.483 4.995-22.478 9.99l-19.98 27.473c-4.995 7.493-12.488 9.99-22.478 9.99h-197.307c-27.473 0-49.951-22.478-49.951-49.951v-382.127c0-27.473 22.478-49.951 49.951-49.951h492.020c27.473 0 49.951 22.478 49.951 49.951v337.171c0 27.473-19.98 47.454-47.454 47.454zM596.917 306.784c-57.444 0-102.4 44.956-102.4 102.4s44.956 102.4 102.4 102.4 102.4-44.956 102.4-102.4-47.454-102.4-102.4-102.4z" />
<glyph unicode="&#xe918;" glyph-name="archiving" data-tags="archiving" d="M512 938.667c-282.224 0-512-229.776-512-512s229.776-512 512-512 512 229.776 512 512-229.776 512-512 512zM512-62.855c-269.737 0-489.522 219.785-489.522 489.522s219.785 489.522 489.522 489.522 489.522-219.785 489.522-489.522-219.785-489.522-489.522-489.522zM759.259 616.482h-232.273c-7.493 0-17.483 4.995-22.478 9.99l-19.98 27.473c-4.995 7.493-12.488 9.99-22.478 9.99h-197.307c-27.473 0-49.951-22.478-49.951-49.951v-382.127c0-27.473 22.478-49.951 49.951-49.951h492.020c27.473 0 49.951 22.478 49.951 49.951v337.171c0 27.473-19.98 47.454-47.454 47.454zM724.293 376.716c-4.995 0-7.493 0-9.99 0s-7.493 0-9.99 2.498c-4.995 2.498-9.99 7.493-19.98 7.493-7.493 0-14.985-2.498-22.478-14.985-2.498-4.995-7.493-7.493-12.488-7.493s-9.99 2.498-12.488 7.493c-4.995 7.493-12.488 12.488-22.478 12.488v-64.937c0-12.488-9.99-24.976-24.976-24.976-12.488 0-24.976 9.99-24.976 24.976 0 4.995 2.498 7.493 7.493 7.493s7.493-2.498 7.493-7.493c0-4.995 2.498-7.493 7.493-7.493s7.493 2.498 7.493 7.493v64.937c-9.99-2.498-19.98-7.493-22.478-12.488s-7.493-7.493-12.488-7.493-9.99 2.498-12.488 7.493c-7.493 12.488-14.985 14.985-22.478 14.985-9.99 0-14.985-4.995-19.98-7.493-2.498-2.498-7.493-2.498-9.99-2.498s-4.995 0-7.493 2.498-7.493 9.99-7.493 17.483c12.488 57.444 59.941 99.902 117.385 102.4v0c0 4.995 2.498 7.493 7.493 7.493s7.493-2.498 7.493-7.493v0c57.444-2.498 107.395-44.956 117.385-102.4 2.498-7.493 0-14.985-4.995-19.98z" />
<glyph unicode="&#xe919;" glyph-name="hr" data-tags="hr" d="M512 938.667c-282.225 0-512-229.775-512-512s229.775-512 512-512 512 229.775 512 512-229.775 512-512 512zM512-62.855c-269.737 0-489.522 219.785-489.522 489.522s219.785 489.522 489.522 489.522 489.522-219.785 489.522-489.522-219.785-489.522-489.522-489.522zM676.839 594.004h64.937c-4.995 52.449-47.453 92.41-97.405 97.405v-64.937c0-19.98 14.985-32.468 32.468-32.468zM599.415 626.472v64.937h-257.249c-34.965 0-62.439-27.473-62.439-62.439v-404.605c0-34.965 27.473-62.439 62.439-62.439h339.668c34.965 0 62.439 27.473 62.439 62.439v324.683h-64.937c-44.956 0-79.922 34.965-79.922 77.425zM512 549.047c34.965 0 62.439-27.473 62.439-62.439s-27.473-62.439-62.439-62.439-62.439 27.473-62.439 62.439 27.473 62.439 62.439 62.439zM614.4 331.76c0-14.985-12.488-24.975-24.975-24.975h-154.849c-14.985 0-24.975 12.488-24.975 24.975 0 0 0 0 0 2.498 0 37.463 24.975 69.932 59.942 82.42 12.488-7.493 27.473-12.488 44.956-12.488 14.985 0 29.97 4.995 42.458 12.488 32.468-14.985 57.444-47.453 57.444-84.917v0z" />
<glyph unicode="&#xe91a;" glyph-name="change" data-tags="change" d="M512 938.667c-282.224 0-512-229.776-512-512s229.776-512 512-512 512 229.776 512 512-229.776 512-512 512zM512-62.855c-269.737 0-489.522 219.785-489.522 489.522s219.785 489.522 489.522 489.522 489.522-219.785 489.522-489.522-219.785-489.522-489.522-489.522zM531.98 753.847h-7.493v-264.741h274.732c0 144.859-119.883 264.741-267.239 264.741zM477.034 708.891v0 0zM651.863 406.687c7.493 19.98 27.473 34.966 52.449 34.966 22.478 0 42.459-12.488 49.951-32.468 2.498 9.99 2.498 22.478 2.498 32.468h-279.727v267.239c-139.863-2.498-249.756-119.883-249.756-264.741s119.883-264.741 264.741-264.741c24.976 0 52.449 4.995 74.927 9.99-2.498 7.493-4.995 17.483-4.995 24.976 0 14.985 4.995 27.473 14.985 37.463-9.99 12.488-14.985 29.971-14.985 54.946 2.498 49.951 34.966 87.415 89.912 99.902zM749.268 324.267c7.493-4.995 12.488-9.99 12.488-14.985 0-12.488 9.99-24.976 24.976-24.976s24.976 9.99 24.976 24.976c0 37.463-32.468 64.937-82.42 69.932v4.995c0 12.488-9.99 24.976-24.976 24.976-12.488 0-24.976-9.99-24.976-24.976v-4.995c-49.951-7.493-82.42-32.468-82.42-69.932 0-52.449 44.956-62.439 82.42-67.434v-47.454c-19.98 4.995-34.966 12.488-34.966 22.478 0 12.488-9.99 24.976-24.976 24.976-12.488 0-24.976-9.99-24.976-24.976 0-24.976 14.985-44.956 39.961-57.444 12.488-7.493 27.473-9.99 44.956-12.488v-4.995c0-12.488 9.99-24.976 24.976-24.976 12.488 0 24.976 9.99 24.976 24.976v4.995c49.951 7.493 82.42 34.966 82.42 69.932 0 52.449-44.956 62.439-82.42 67.434v44.956c4.995 0 14.985-2.498 19.98-4.995zM679.337 289.301c-27.473 2.498-34.966 7.493-34.966 19.98 0 9.99 14.985 17.483 34.966 22.478v-42.459zM761.756 216.872c0-9.99-14.985-17.483-34.966-22.478v42.459c27.473-2.498 34.966-7.493 34.966-19.98z" />
<glyph unicode="&#xe91b;" glyph-name="search" data-tags="search" d="M995.314 8.168l-232.822 232.822c123.769 156.192 111.985 386.068-32.423 530.476-156.192 156.192-409.638 156.192-565.83 0s-156.192-409.638 0-565.83c76.63-76.63 179.776-117.877 282.922-117.877 88.415 0 173.869 29.476 247.553 85.469l232.822-232.822c8.839-8.839 20.623-14.731 32.423-14.731s23.57 5.892 32.423 14.731c23.57 20.623 23.57 50.1 2.946 67.777zM688.822 249.829c-132.623-132.623-347.753-132.623-480.376 0s-132.623 347.753 0 480.376c67.777 67.777 153.246 100.2 241.661 100.2s173.869-32.423 241.661-100.2c129.676-132.623 129.676-347.753-2.946-480.376z" />
<glyph unicode="&#xe91c;" glyph-name="screen" data-tags="screen" d="M916.501 826.908c0 42.728-37.031 79.759-79.759 79.759h-675.132c-42.728 0-79.759-37.031-79.759-79.759 0-37.031 14.24-71.217 39.884-99.706l227.891-247.838c17.093-17.093 25.635-39.884 25.635-65.519v-364.628c0-8.542 2.844-17.093 11.395-22.791l96.852-74.061c5.698-2.844 11.395-5.698 17.093-5.698 8.542 0 17.093 2.844 22.791 11.395 8.542 11.395 5.698 31.333-5.698 39.884l-85.457 65.519v353.232c0 37.031-14.24 74.061-39.884 102.55l-227.891 247.838c-14.24 17.093-22.791 37.031-22.791 59.822 0 11.395 11.395 22.791 22.791 22.791h675.132c11.395 0 22.791-11.395 22.791-22.791 0-22.791-8.542-42.728-22.791-59.822l-227.891-244.984c-25.635-28.489-42.728-65.519-42.728-105.404v-435.845c0-17.093 11.395-28.489 28.489-28.489s28.489 11.395 28.489 28.489v433c0 25.635 8.542 48.426 25.635 65.519l227.891 244.984c22.791 31.333 37.031 65.519 37.031 102.55zM694.311 419.558c-17.093 0-28.489-11.395-28.489-28.489s11.395-28.489 28.489-28.489h219.349c17.093 0 28.489 11.395 28.489 28.489s-11.395 28.489-28.489 28.489h-219.349zM913.647 251.473h-219.349c-17.093 0-28.489-11.395-28.489-28.489s11.395-28.489 28.489-28.489h219.349c17.093 0 28.489 11.395 28.489 28.489 0 14.24-14.24 28.489-28.489 28.489zM913.647 80.559h-219.349c-17.093 0-28.489-11.395-28.489-28.489s11.395-28.489 28.489-28.489h219.349c17.093 0 28.489 11.395 28.489 28.489 0 14.24-14.24 28.489-28.489 28.489z" />
<glyph unicode="&#xe91d;" glyph-name="set" data-tags="set" d="M959.493 319.598l-52.161 52.161c2.747 30.201 2.747 82.362 0 112.562l52.161 52.161c30.201 30.201 35.694 76.869 16.468 115.309l-38.44 65.882c-21.961 38.44-65.882 54.908-107.069 43.922l-71.375-19.214c-30.201 24.707-63.148 41.175-98.829 57.654l-19.214 68.629c-10.986 41.175-49.415 71.375-93.336 71.375h-76.869c-43.922 0-82.362-30.201-93.336-71.375l-19.214-68.629c-35.694-13.721-68.629-32.947-98.829-57.654l-68.629 19.214c-41.175 10.986-85.108-8.24-107.069-43.922l-38.44-65.882c-21.961-38.44-16.468-85.108 16.468-115.309l52.161-52.161c-2.747-30.201-2.747-82.362 0-112.562l-52.161-52.161c-30.201-30.201-35.694-76.869-16.468-115.309l38.44-65.882c21.961-38.44 65.882-54.908 107.069-43.922l68.629 19.214c30.201-24.707 63.148-41.175 98.829-57.654l19.214-68.629c10.986-41.175 49.415-71.375 93.336-71.375h76.869c43.922 0 82.362 30.201 93.336 71.375l19.214 68.629c35.694 13.721 68.629 32.947 98.829 57.654l68.629-19.214c41.175-10.986 85.108 8.24 107.069 43.922l38.44 65.882c21.961 35.694 16.468 85.108-13.721 115.309zM926.546 231.743l-38.44-65.882c-8.24-16.468-27.454-24.707-46.668-19.214l-82.362 21.961c-5.493 2.747-10.986 0-16.468 0-2.747 0-5.493-2.747-8.24-5.493-30.201-27.454-65.882-46.668-107.069-60.401-2.747 0-8.24-2.747-10.986-5.493 0 0-2.747-2.747-2.747-5.493-2.747-2.747-2.747-5.493-2.747-8.24l-21.961-82.362c-5.493-16.468-21.961-30.201-38.44-30.201h-76.869c-19.214 0-35.694 13.721-38.44 30.201l-21.961 82.362c0 2.747-2.747 8.24-5.493 10.986 0 2.747-2.747 2.747-5.493 2.747-2.747 2.747-5.493 2.747-8.24 5.493-38.44 13.721-74.122 35.694-107.069 60.401-2.747 2.747-5.493 5.493-10.986 5.493-2.747 0-5.493 0-8.24 0s-5.493 0-8.24 0l-82.362-21.961c-16.468-5.493-35.694 2.747-46.668 19.214l-38.44 65.882c-8.24 16.468-5.493 35.694 5.493 49.415l60.401 60.401c2.747 2.747 5.493 5.493 5.493 10.986 2.747 5.493 2.747 8.24 0 13.721-2.747 19.214-2.747 104.323 0 123.537 0 5.493 0 8.24 0 13.721 0 2.747-2.747 8.24-5.493 10.986l-60.401 60.401c-13.721 13.721-16.468 32.947-5.493 49.415l38.44 65.882c8.24 16.468 27.454 24.707 46.668 19.214l82.362-21.961c2.747 0 8.24 0 10.986 0 5.493 0 8.24 2.747 13.721 5.493 30.201 27.454 65.882 46.668 107.069 60.401 2.747 0 5.493 2.747 8.24 5.493 0 0 0 0 2.747 2.747s5.493 8.24 8.24 13.721l21.961 82.362c5.493 16.468 21.961 30.201 38.44 30.201h76.869c19.214 0 35.694-13.721 38.44-30.201l21.961-82.362c0-5.493 2.747-8.24 8.24-13.721 2.747-2.747 5.493-5.493 10.986-5.493 38.44-13.721 74.122-35.694 107.069-60.401 2.747-2.747 8.24-5.493 10.986-5.493 5.493 0 8.24 0 13.721 0l82.362 21.961c16.468 5.493 35.694-2.747 46.668-19.214l38.44-65.882c8.24-16.468 5.493-35.694-5.493-49.415l-60.401-60.401c-2.747-2.747-5.493-5.493-5.493-10.986 0 0 0-2.747 0-2.747 0-2.747 0-8.24 0-10.986 2.747-19.214 2.747-104.323 0-123.537 0-2.747 0-5.493 0-8.24s0-5.493 2.747-8.24c0-2.747 2.747-5.493 5.493-8.24l60.401-60.401c10.986-16.468 13.721-35.694 2.747-52.161zM512 594.137c-93.336 0-167.47-74.122-167.47-167.47s74.122-167.47 167.47-167.47 167.47 74.122 167.47 167.47-74.122 167.47-167.47 167.47zM512 314.105c-63.148 0-112.562 49.415-112.562 112.562s49.415 112.562 112.562 112.562 112.562-49.415 112.562-112.562-49.415-112.562-112.562-112.562z" />
<glyph unicode="&#xe91e;" glyph-name="Import" data-tags="Import" d="M560.45 335.467h-242.25c-17.1 0-28.5-11.4-28.5-28.5s11.4-28.5 28.5-28.5h310.65c17.1 0 28.5 11.4 28.5 28.5v313.5c0 17.1-11.4 28.5-28.5 28.5s-28.5-11.4-28.5-28.5v-242.25l-475.95 475.95c-11.4 11.4-28.5 11.4-39.9 0s-11.4-28.5 0-39.9l475.95-478.8zM797 882.667h-364.8c-17.1 0-28.5-11.4-28.5-28.5s11.4-28.5 28.5-28.5h364.8c62.7 0 114-51.3 114-114v-570c0-62.7-51.3-114-114-114h-570c-62.7 0-114 51.3-114 114v364.8c0 17.1-11.4 28.5-28.5 28.5s-28.5-11.4-28.5-28.5v-364.8c0-94.050 76.95-171 171-171h570c94.050 0 171 76.95 171 171v570c0 94.050-76.95 171-171 171z" />
<glyph unicode="&#xe91f;" glyph-name="accounting" data-tags="accounting" d="M296.007 438.534c-11.867 11.867-26.109 16.613-42.724 16.613 0 0 0 0 0 0h-168.522c-16.613 0-30.851-7.121-42.724-18.988s-16.613-26.109-16.613-42.724v-367.899c0-16.613 7.121-30.851 18.988-42.724s26.109-16.613 42.724-16.613c0 0 0 0 0 0h168.522c16.613 0 30.851 7.121 42.724 18.988s16.613 26.109 16.613 42.724v367.899c-2.374 16.613-7.121 30.851-18.988 42.724zM253.271 25.538h-170.895v370.264h170.895v-370.264c2.374 0 0 0 0 0zM637.798 868.146c-11.867 11.867-26.109 16.613-42.724 16.613 0 0 0 0 0 0h-168.522c-16.613 0-30.851-7.121-42.724-16.613-11.867-11.867-16.613-26.109-16.613-42.724v-797.509c0-33.229 26.109-61.712 61.712-61.712h168.522c0 0 0 0 0 0 33.229 0 61.712 26.109 61.712 61.712v797.509c-2.374 16.613-9.509 33.229-21.362 42.724zM597.448 25.538h-170.895v799.882h170.895v-799.882c0 2.374 0 0 0 0zM998.577 611.803c0 33.229-26.109 61.712-61.712 61.712h-168.522c-33.229 0-61.712-26.109-61.712-61.712v-583.9c0-16.613 7.121-30.851 18.988-42.724s26.109-16.613 42.724-16.613c0 0 0 0 0 0h168.522c0 0 0 0 0 0 16.613 0 30.851 7.121 42.724 18.988s16.613 26.109 16.613 42.724l2.374 581.518zM939.237 25.538h-170.895v583.9h170.895v-583.9c2.374 2.374 0 0 0 0z" />
<glyph unicode="&#xe920;" glyph-name="people" data-tags="people" d="M859.906 480.655c38.983 26.033 64.318 69.854 64.318 119.596 0 79.172-64.18 143.353-143.353 143.353-12.852 0-25.309-1.692-37.161-4.862 6.956-10.201 12.677-22.476 17.414-35.233 5.446-0.922 11.076-0.417 16.821-0.372 57.19-0.057 103.498-46.402 103.498-103.556 0-57.191-46.365-103.556-103.556-103.556-9.483 0-18.663 1.271-27.384 3.659-9.91-21.461-22.313-39.813-36.766-56.322 13.47 4.137 28.671 6.416 44.379 6.586l41.517 0.001c0.972 0.018 2.122 0.035 3.273 0.035 86.786 0 157.72-67.868 162.627-153.422 0.055-1.804 0.080-3.415 0.080-5.037 0-16.812-2.231-33.106-6.406-48.594-0.112-0.222-0.351-1.982-0.351-3.791 0-9.346 6.333-17.21 14.94-19.545 0.909-0.139 1.799-0.197 2.702-0.197s1.792 0.059 2.661 0.172c-0.043-0.010 0.030-0.011 0.098-0.011 9.236 0 17.006 6.253 19.314 14.755 4.8 17.504 7.54 37.438 7.54 58.019 0 1.821-0.019 3.644-0.063 5.456-4.409 87.105-64.17 159.399-144.724 182.529zM224.602 449.937h41.422c15.504-0.068 30.48-2.19 44.72-6.1-15.398 16.492-27.801 34.838-37.755 54.633-8.603-0.672-17.699-1.921-27.081-1.921-57.191 0-103.556 46.365-103.556 103.556s46.365 103.556 103.556 103.556c5.62 0 11.143-0.448 16.519-1.309 4.717 14.607 10.443 26.881 17.059 38.586-10.919 1.345-22.699 2.848-34.824 2.848-79.298 0-143.582-64.284-143.582-143.582 0-49.225 24.77-92.662 62.528-118.536-81.848-24.156-141.656-97.299-145.174-184.934-0.051-1.95-0.070-3.79-0.070-5.634 0-20.558 2.741-40.475 7.871-59.411 1.972-7.056 9.749-13.308 18.979-13.308 0.068 0 0.142 0 0.21 0.001 0.757-0.104 1.647-0.163 2.549-0.163s1.792 0.059 2.661 0.172c8.659 2.248 15.027 10.076 15.027 19.399 0 1.869-0.256 3.684-0.738 5.4-3.846 14.049-6.071 30.343-6.071 47.155 0 1.616 0.018 3.233 0.060 4.84 4.315 86.273 75.507 154.776 162.7 154.776 1.049 0 2.096-0.009 3.141-0.032zM617.651 422.248c69.762 36.249 116.591 107.955 116.591 190.601 0 118.243-95.853 214.096-214.096 214.096s-214.096-95.853-214.096-214.096c0-82.646 46.829-154.358 115.403-190.040-135.763-27.492-238.675-143.523-245.229-284.73-0.090-3.15-0.122-6.064-0.122-8.992 0-31.046 4.111-61.127 11.821-89.736 1.791-6.237 9.561-12.489 18.797-12.489 0.068 0 0.142 0 0.21 0.001h5.108c8.749 2.363 15.076 10.234 15.076 19.574 0 1.809-0.239 3.563-0.685 5.236-6.372 23.1-10.055 49.783-10.055 77.331 0 2.461 0.032 4.916 0.089 7.365 3.016 139.264 124.725 251.893 271.335 251.893h64.927c146.375 0 268.318-113.099 271.341-252.261 0.069-2.457 0.111-5.35 0.111-8.252 0-27.005-3.519-53.185-10.134-78.108 0.056 0.587-0.187-1.181-0.187-2.999 0-11.099 8.998-20.096 20.096-20.096 9.275 0 17.090 6.29 19.4 14.837 7.191 26.366 11.302 56.478 11.302 87.549 0 2.897-0.037 5.786-0.106 8.661-6.51 141.675-109.682 257.886-244.978 284.333zM520.146 438.769c-96.006 0-173.835 77.83-173.835 173.836s77.83 173.836 173.836 173.836c95.928 0 173.701-77.695 173.835-173.59 0-96.148-77.934-174.082-174.070-174.082z" />
<glyph unicode="&#xe921;" glyph-name="download" data-tags="download" d="M545.774 114.907h-441.66c-25.98 0-49.362 20.784-49.362 49.362v576.756c0 25.98 20.784 49.362 49.362 49.362h296.172c5.196 0 7.794-2.598 10.392-5.196l31.176-41.568c12.99-15.588 31.176-25.98 51.96-25.98h355.926c25.98 0 49.362-20.784 49.362-49.362v-168.87c0-15.588 10.392-25.98 25.98-25.98s25.98 10.392 25.98 25.98v168.87c0 54.558-44.166 101.322-101.322 101.322h-350.73c-5.196 0-7.794 2.598-10.392 5.196l-31.176 41.568c-12.99 15.588-31.176 25.98-51.96 25.98h-301.368c-54.558 0-101.322-44.166-101.322-101.322v-576.756c0-54.558 44.166-101.322 101.322-101.322h441.66c15.588 0 25.98 10.392 25.98 25.98 0 12.99-10.392 25.98-25.98 25.98zM792.584 463.039c-124.704 0-226.026-101.322-226.026-226.026s101.322-226.026 226.026-226.026 226.026 101.322 226.026 226.026c0 124.704-101.322 226.026-226.026 226.026zM792.584 65.545c-96.126 0-174.066 77.94-174.066 174.066s77.94 174.066 174.066 174.066c96.126 0 174.066-77.94 174.066-174.066s-77.94-174.066-174.066-174.066zM862.73 221.425h-59.754v90.93c0 15.588-10.392 25.98-25.98 25.98s-25.98-10.392-25.98-25.98v-116.91c0-15.588 10.392-25.98 25.98-25.98h85.734c15.588 0 25.98 10.392 25.98 25.98s-10.392 25.98-25.98 25.98z" />
<glyph unicode="&#xe922;" glyph-name="document1" data-tags="document1" d="M891.16 700.66h-392.997c-8.304 0-13.836 5.532-13.836 13.836l-5.532 41.509c-8.304 52.584-52.584 94.092-107.938 94.092h-221.409c-83.027 0-149.447-66.42-149.447-149.447v-542.444c0-83.027 66.42-149.447 149.447-149.447h722.334c83.027 0 149.447 66.42 149.447 149.447v415.137c2.771 69.191-55.354 127.307-130.079 127.307zM968.646 155.445c0-52.584-41.509-94.092-94.092-94.092h-725.096c-52.584 0-94.092 41.509-94.092 94.092v542.444c0 52.584 41.509 94.092 94.092 94.092h221.409c24.912 0 49.813-19.369 52.584-44.28l5.532-41.509c5.532-33.215 35.976-60.887 69.191-60.887h392.997c41.509 0 77.495-33.215 77.495-77.495v-412.365zM542.444 778.145h370.857c16.608 0 27.673 11.075 27.673 27.673s-11.075 27.673-27.673 27.673h-370.857c-16.608 0-27.673-11.075-27.673-27.673s11.075-27.673 27.673-27.673z" />
<glyph unicode="&#xe923;" glyph-name="reminder2" data-tags="reminder2" d="M512 880.074c-251.258 0-456.294-205.048-456.294-456.294 0-135.732 60.643-257.031 153.064-340.78l-101.081-103.967c-11.546-11.546-11.546-28.878 0-40.437 5.773-5.773 11.546-8.66 20.219-8.66s14.445 2.887 20.219 8.66l106.854 109.74c72.202-49.097 161.724-77.975 257.031-77.975 101.081 0 193.489 34.652 271.464 89.522l118.4-118.4c5.773-5.773 11.546-8.66 20.219-8.66s14.445 2.887 20.219 8.66c11.546 11.546 11.546 28.878 0 40.437l-115.514 112.627c86.635 83.749 141.505 199.275 141.505 329.221 0 251.258-205.048 456.294-456.294 456.294zM512 25.244c-219.481 0-398.537 179.056-398.537 398.537s179.056 398.537 398.537 398.537 398.537-179.056 398.537-398.537c0-219.481-179.056-398.537-398.537-398.537zM656.392 420.894h-127.072v219.481c0 17.332-11.546 28.878-28.878 28.878s-28.878-11.546-28.878-28.878v-248.359c0-17.332 11.546-28.878 28.878-28.878h155.951c17.332 0 28.878 11.546 28.878 28.878 0 14.445-11.546 28.878-28.878 28.878zM64.366 727.010c20.219 28.878 40.437 54.87 66.429 80.862 23.105 23.105 51.984 46.21 80.862 66.429 14.445 8.66 17.332 25.992 8.66 40.437s-25.992 17.332-40.437 8.66c-31.765-20.219-60.643-46.21-89.522-72.202-25.992-25.992-51.984-57.757-72.202-89.522-8.66-14.445-5.773-31.765 8.66-40.437 5.773-2.887 11.546-5.773 17.332-5.773 5.773-2.887 14.445 2.887 20.219 11.546zM1008.731 758.787c-20.219 31.765-46.21 60.643-72.202 89.522-25.992 25.992-57.757 51.984-89.522 72.202-14.445 8.66-31.765 5.773-40.437-8.66s-5.773-31.765 8.66-40.437c28.878-20.219 54.87-40.437 80.862-66.429 23.105-23.105 46.21-51.984 66.429-80.862 5.773-8.66 14.445-11.546 23.105-11.546 5.773 0 11.546 2.887 17.332 5.773 11.546 8.66 14.445 25.992 5.773 40.437z" />
<glyph unicode="&#xe924;" glyph-name="refresh" data-tags="refresh" d="M961.512 791.066c-18.62 21.283-45.22 31.915-74.471 31.915h-577.182c-29.262 0-53.198-10.642-74.471-31.915-21.283-18.62-31.915-45.22-31.915-74.471v-577.182c0-58.514 50.535-106.397 109.049-106.397h574.519c58.514 0 106.397 47.872 106.397 106.397v577.182c2.663 26.599-10.642 53.198-31.915 74.471zM940.229 136.75c0-29.262-23.936-53.198-53.198-53.198v0h-577.182c-29.262 0-55.861 23.936-55.861 53.198v577.182c0 13.294 5.316 26.599 15.957 37.241s23.936 15.957 37.241 15.957v0h577.182c13.294 0 26.599-5.316 37.241-15.957s18.62-23.936 18.62-37.241v-577.182zM812.559 522.422c-13.294 7.979-29.262 2.663-37.241-10.642v0c-7.979 18.62-21.283 37.241-34.578 50.535-34.578 34.578-79.797 53.198-127.67 53.198v0c-47.872 0-93.092-18.62-127.67-53.198s-53.198-79.797-53.198-127.67 18.62-93.092 50.535-127.67c34.578-34.578 79.797-53.198 127.67-53.198v0c47.872 0 93.092 18.62 125.007 50.535 10.642 10.642 10.642 26.599 0 37.241s-26.599 10.642-37.241 0c-23.936-23.936-55.861-37.241-87.776-37.241v0c-34.578 0-66.493 13.294-87.776 37.241-23.936 26.599-37.241 58.514-37.241 90.439 0 34.578 13.294 66.493 37.241 87.776 23.936 23.936 55.861 37.241 87.776 37.241v0c34.578 0 66.493-13.294 87.776-37.241 10.642-10.642 18.62-21.283 23.936-31.915-13.294 7.979-26.599 2.663-34.578-7.979-7.979-13.294-5.316-29.262 7.979-37.241l53.198-34.578c5.316-2.663 10.642-5.316 15.957-5.316 2.663 0 5.316 0 7.979 0 7.979 2.663 13.294 7.979 15.957 13.294l34.578 63.84c7.979 18.62 2.663 34.578-10.642 42.557zM99.729 751.162c10.642 10.642 26.599 15.957 39.894 15.957h13.294c15.957 0 26.599 10.642 26.599 26.599s-10.642 26.599-26.599 26.599h-13.294c-29.262 0-55.861-10.642-77.134-31.915s-31.915-47.872-31.915-77.134v-569.203c0-61.177 47.872-109.049 109.049-111.712h13.294c15.957 0 26.599 10.642 26.599 26.599s-10.642 26.599-26.599 26.599h-13.294c-15.957 0-29.262 5.316-39.894 15.957s-15.957 23.936-15.957 39.894v571.866c0 15.957 5.316 29.262 15.957 39.894z" />
<glyph unicode="&#xe925;" glyph-name="vacation" data-tags="vacation" d="M968.228 882.895c-13.184 13.184-47.47 36.921-118.673 21.098 0 0-2.635 0-2.635 0-55.379-18.458-108.125-52.745-150.317-92.301-29.008-29.008-84.387-79.112-105.485-100.211l-443.039 63.29c-26.373 2.635-52.745-5.275-71.203-26.373l-26.373-31.646c-15.824-18.458-23.733-39.557-21.098-63.29s15.824-44.831 34.282-58.019l261.075-189.872-34.282-47.47-158.23 5.275c-18.458 0-39.557-7.909-52.745-21.098-13.184-15.824-21.098-34.282-18.458-55.379s15.824-36.921 31.646-47.47l105.485-60.654c-2.635-15.824-2.635-36.921 10.549-50.106s34.282-13.184 50.106-10.549l60.654-105.485c10.549-18.458 29.008-29.008 47.47-31.646 21.098-2.635 39.557 2.635 55.379 18.458 13.184 13.184 21.098 31.646 21.098 52.745l-5.275 158.23 47.47 34.282 189.872-261.075c13.184-18.458 34.282-31.646 58.019-34.282 2.635 0 5.275 0 7.909 0 21.098 0 39.557 7.909 55.379 21.098l31.646 26.373c21.098 18.458 29.008 44.831 26.373 71.203l-63.29 443.039c21.098 21.098 71.203 73.838 100.211 105.485 39.557 42.196 73.838 94.936 92.301 150.317 0 0 0 2.635 0 2.635 18.458 63.29-2.635 97.576-15.824 113.399zM936.58 777.409c-15.824-47.47-44.831-92.301-79.112-129.218-36.921-36.921-108.125-113.399-108.125-113.399-5.275-5.275-7.909-13.184-7.909-21.098l63.29-456.228c2.635-10.549-2.635-18.458-7.909-26.373l-31.646-26.373c-5.275-5.275-13.184-7.909-21.098-7.909s-15.824 5.275-21.098 10.549l-203.061 282.174c-5.275 7.909-13.184 10.549-21.098 10.549-5.275 0-10.549-2.635-15.824-5.275l-79.112-58.019c-7.909-5.275-10.549-13.184-10.549-21.098l5.275-171.414c0-5.275-2.635-7.909-5.275-10.549-5.275-2.635-10.549-2.635-13.184-2.635s-7.909 2.635-10.549 7.909l-71.203 123.944c-7.909 10.549-21.098 15.824-34.282 10.549-2.635 0-5.275-2.635-7.909-2.635 0 2.635 2.635 5.275 2.635 7.909 5.275 13.184 0 26.373-10.549 34.282l-123.944 71.203c-5.275 2.635-7.909 7.909-7.909 10.549s0 7.909 2.635 13.184c2.635 2.635 7.909 5.275 10.549 5.275l171.414-5.275c10.549 0 15.824 2.635 21.098 10.549l58.019 79.112c7.909 10.549 5.275 29.008-5.275 36.921l-279.539 203.061c-7.909 5.275-10.549 13.184-10.549 21.098s2.635 15.824 7.909 21.098l26.373 31.646c5.275 7.909 15.824 10.549 26.373 7.909l453.588-63.29c7.909 0 15.824 2.635 21.098 7.909 0 0 73.838 73.838 113.399 108.125 36.921 34.282 81.752 63.29 129.218 79.112 47.47 10.549 63.29-2.635 68.564-5.275 2.635-5.275 15.824-21.098 5.275-68.564z" />
<glyph unicode="&#xe926;" glyph-name="account2" data-tags="account2" d="M512 871.019c-245.162 0-444.352-199.19-444.352-444.352s199.19-444.352 444.352-444.352 444.352 199.19 444.352 444.352-199.19 444.352-444.352 444.352zM512 33.395c-217.068 0-393.272 176.204-393.272 393.272s176.204 393.272 393.272 393.272 393.272-176.204 393.272-393.272-176.204-393.272-393.272-393.272zM512 304.086c22.986 0 40.864 17.878 40.864 40.864v339.649c0 22.986-17.878 40.864-40.864 40.864s-40.864-17.878-40.864-40.864v-337.095c0-25.54 17.878-43.418 40.864-43.418zM557.972 214.707c0-25.386-20.586-45.972-45.972-45.972s-45.972 20.586-45.972 45.972c0 25.386 20.586 45.972 45.972 45.972s45.972-20.586 45.972-45.972z" />
<glyph unicode="&#xe927;" glyph-name="account1" data-tags="account1" d="M636.24 406.631c-16.026 5.342-32.066 10.684-45.428 13.362 80.158 42.75 133.592 128.25 133.592 227.112 0 141.612-114.888 259.178-259.178 259.178s-259.178-114.888-259.178-259.178c0-98.862 53.434-181.698 133.592-227.112-160.316-34.73-283.224-173.678-288.566-339.336 0-37.408 2.678-77.48 13.362-114.888 2.678-10.684 13.362-18.704 26.724-18.704 2.678 0 5.342 0 8.020 0 13.362 2.678 24.046 18.704 18.704 32.066-8.020 32.066-13.362 66.796-10.684 98.862 2.678 165.658 146.954 299.264 320.632 299.264h77.48c37.408 0 77.48-8.020 112.224-18.704 13.362-5.342 29.388 2.678 34.73 16.026s-2.678 26.724-16.026 32.066zM465.24 441.361c-112.224 0-205.744 90.842-205.744 205.744s93.52 205.744 205.744 205.744 205.744-90.842 205.744-205.744-93.52-205.744-205.744-205.744zM940.846 160.801c16.026 0 26.724 10.684 26.724 26.724s-10.684 26.724-26.724 26.724h-56.112l80.158 130.928c8.020 13.362 2.678 29.388-8.020 37.408-13.362 8.020-29.388 2.678-37.408-8.020l-96.184-157.652c0 0 0 0 0-2.678h-5.342c0 0 0 0 0 2.678l-96.184 157.652c-8.020 13.362-24.046 16.026-37.408 8.020s-16.026-24.046-8.020-37.408l80.158-130.928h-56.112c-16.026 0-26.724-10.684-26.724-26.724s10.684-26.724 26.724-26.724h93.52v-40.086h-93.52c-16.026 0-26.724-10.684-26.724-26.724s10.684-26.724 26.724-26.724h93.52v-93.52c0-16.026 10.684-26.724 26.724-26.724s26.724 10.684 26.724 26.724v93.52h93.52c16.026 0 26.724 10.684 26.724 26.724s-10.684 26.724-26.724 26.724h-93.52v40.086h93.52z" />
<glyph unicode="&#xe928;" glyph-name="notice1" data-tags="notice1" d="M672.992 85.168c-12.196 7.318-26.832 2.439-34.15-7.318-26.832-46.346-78.057-73.178-129.282-73.178-53.664 0-100.010 26.832-126.842 73.178-7.318 12.196-21.954 17.075-34.15 9.757s-17.075-21.954-9.757-34.15c34.15-60.982 97.571-97.571 168.31-97.571 68.3 0 134.16 36.589 170.749 97.571 12.196 9.757 7.318 24.393-4.878 31.711zM894.966 192.496c-80.496 85.375-78.057 141.478-78.057 207.339 0 7.318 0 12.196 0 19.514 0 9.757 0 19.514 0 31.711 2.439 78.057 4.878 175.628-87.814 265.881-34.15 34.15-73.178 58.543-114.646 70.739 0 4.878 0 7.318 0 7.318 0 58.543-46.346 104.889-104.889 104.889s-104.889-46.346-104.889-104.889c0 0 0-2.439 0-7.318-41.468-14.636-80.496-39.029-114.646-70.739-90.253-90.253-87.814-187.824-87.814-265.881 0-9.757 0-19.514 0-31.711 0-7.318 0-12.196 0-19.514 0-65.861 2.439-121.964-78.057-207.339-12.196-14.636-17.075-34.15-9.757-51.225s24.393-29.271 43.907-29.271h695.194c19.514 0 36.589 12.196 43.907 29.271 14.636 17.075 12.196 36.589-2.439 51.225zM163.183 160.786c92.693 100.010 92.693 170.749 90.253 241.488 0 7.318 0 12.196 0 19.514 0 9.757 0 21.954 0 31.711-2.439 75.618-2.439 153.674 73.178 229.292 31.711 31.711 68.3 53.664 109.768 63.421 9.757 2.439 19.514 12.196 19.514 24.393v24.393c0 31.711 24.393 56.103 56.103 56.103s56.103-24.393 56.103-56.103v-24.393c0-12.196 7.318-21.954 19.514-24.393 41.468-9.757 78.057-31.711 109.768-63.421 75.618-75.618 73.178-153.674 73.178-229.292 0-9.757 0-21.954 0-31.711 0-7.318 0-12.196 0-19.514 0-68.3-2.439-141.478 90.253-241.488h-697.633z" />
<glyph unicode="&#xe929;" glyph-name="person_center" data-tags="person_center" d="M512 885.355c-253.42 0-458.688-205.268-458.688-458.688s205.268-458.688 458.688-458.688 458.688 205.268 458.688 458.688c0 253.42-205.268 458.688-458.688 458.688zM755.281 97.221c-68.419-50.684-152.052-81.090-243.281-81.090s-174.862 30.406-243.281 81.090c-5.064 20.278-7.607 40.545-5.064 60.823 2.532 114.039 101.368 205.268 220.471 205.268h55.748c119.103 0 217.939-91.229 220.471-205.268 0-20.278-2.532-40.545-5.064-60.823zM372.619 560.984c0 76.026 63.355 139.381 139.381 139.381s139.381-63.355 139.381-139.381c0-76.026-63.355-139.381-139.381-139.381s-139.381 63.355-139.381 139.381zM811.029 147.905c0 2.532 0 7.607 0 10.139-2.532 114.039-83.633 212.875-195.129 243.281 50.684 32.949 86.165 91.229 86.165 157.116 0 103.9-83.633 190.065-190.065 190.065s-190.065-83.633-190.065-190.065c0-65.887 32.949-124.178 86.165-157.116-108.975-30.406-192.597-129.242-195.129-243.281 0-2.532 0-7.607 0-10.139-68.419 73.494-108.975 169.787-108.975 278.762 0 225.546 182.458 408.004 408.004 408.004s408.004-182.458 408.004-408.004c0-106.432-40.545-205.268-108.975-278.762z" />
<glyph unicode="&#xe92a;" glyph-name="date" data-tags="date" d="M431.307 752.15h188.301c16.136 0 26.902 10.766 26.902 26.902s-10.766 26.902-26.902 26.902h-188.301c-16.136 0-26.902-10.766-26.902-26.902s10.766-26.902 26.902-26.902zM810.581 805.954h-51.106c-16.136 0-26.902-10.766-26.902-26.902s10.766-26.902 26.902-26.902h51.106c48.421 0 86.076-37.655 86.076-86.076v-51.106h-769.327v51.106c0 48.421 37.655 86.076 86.076 86.076h75.323c16.136 0 26.902 10.766 26.902 26.902s-10.766 26.902-26.902 26.902h-75.323c-78.008 0-139.88-61.872-139.88-139.88v-535.303c0-78.008 61.872-139.88 139.88-139.88h599.86c78.008 0 139.88 61.872 139.88 139.88v535.303c-2.685 75.323-64.557 139.88-142.565 139.88zM896.67 130.771c0-48.421-37.655-86.076-86.076-86.076h-597.175c-48.421 0-86.076 37.655-86.076 86.076v430.393h772.025v-430.393zM283.346 332.523c40.353 0 75.323 32.285 75.323 75.323s-34.97 72.625-75.323 72.625c-40.353 0-75.323-32.285-75.323-75.323s34.97-72.625 75.323-72.625zM283.346 426.667c10.766 0 21.519-8.068 21.519-21.519 0-10.766-8.068-21.519-21.519-21.519-10.766 0-21.519 8.068-21.519 21.519 2.685 13.451 10.766 21.519 21.519 21.519zM514.685 332.523c40.353 0 75.323 32.285 75.323 75.323s-34.97 72.625-75.323 72.625-75.323-32.285-75.323-75.323 34.97-72.625 75.323-72.625zM514.685 426.667c10.766 0 21.519-8.068 21.519-21.519 0-10.766-8.068-21.519-21.519-21.519s-21.519 8.068-21.519 21.519c0 13.451 10.766 21.519 21.519 21.519zM746.024 332.523c40.353 0 75.323 32.285 75.323 75.323s-34.97 72.625-75.323 72.625c-40.353 0-75.323-32.285-75.323-75.323s32.285-72.625 75.323-72.625zM746.024 426.667c10.766 0 21.519-8.068 21.519-21.519 0-10.766-8.068-21.519-21.519-21.519-10.766 0-21.519 8.068-21.519 21.519s8.068 21.519 21.519 21.519zM283.346 144.222c40.353 0 75.323 32.285 75.323 75.323 0 40.353-32.285 75.323-75.323 75.323-40.353 0-75.323-32.285-75.323-75.323 2.685-43.038 34.97-75.323 75.323-75.323zM283.346 238.366c10.766 0 21.519-8.068 21.519-21.519 0-10.766-8.068-21.519-21.519-21.519-10.766 0-21.519 8.068-21.519 21.519 2.685 13.451 10.766 21.519 21.519 21.519zM514.685 144.222c40.353 0 75.323 32.285 75.323 75.323 0 40.353-32.285 75.323-75.323 75.323s-75.323-32.285-75.323-75.323c0-43.038 34.97-75.323 75.323-75.323zM514.685 238.366c10.766 0 21.519-8.068 21.519-21.519 0-10.766-8.068-21.519-21.519-21.519s-21.519 8.068-21.519 21.519c0 13.451 10.766 21.519 21.519 21.519zM746.024 144.222c40.353 0 75.323 32.285 75.323 75.323 0 40.353-32.285 75.323-75.323 75.323-40.353 0-75.323-32.285-75.323-75.323s32.285-75.323 75.323-75.323zM746.024 238.366c10.766 0 21.519-8.068 21.519-21.519 0-10.766-8.068-21.519-21.519-21.519-10.766 0-21.519 8.068-21.519 21.519s8.068 21.519 21.519 21.519zM692.233 701.044c18.834 0 32.285 13.451 32.285 32.285v96.842c0 18.834-13.451 32.285-32.285 32.285s-32.285-13.451-32.285-32.285v-99.527c0-16.136 13.451-29.587 32.285-29.587zM355.984 701.044c18.834 0 32.285 13.451 32.285 32.285v96.842c0 18.834-13.451 32.285-32.285 32.285-16.136 0-32.285-13.451-32.285-32.285v-99.527c0-16.136 16.136-29.587 32.285-29.587z" />
<glyph unicode="&#xe92b;" glyph-name="add" data-tags="add" d="M512 896.747c-259.663 0-470.080-210.417-470.080-470.080s210.417-470.080 470.080-470.080 470.080 210.417 470.080 470.080-210.417 470.080-470.080 470.080zM512 12.547c-228.326 0-414.12 185.794-414.12 414.12s185.794 414.12 414.12 414.12 414.12-185.794 414.12-414.12c0-228.326-185.794-414.12-414.12-414.12zM787.334 455.766h-246.238v250.711c0 15.671-13.433 26.861-26.861 26.861s-26.861-13.433-26.861-26.861v-252.949h-246.238c-15.671 0-26.861-13.433-26.861-26.861s13.433-26.861 26.861-26.861h246.238v-252.949c0-15.671 13.433-26.861 26.861-26.861s26.861 13.433 26.861 26.861v252.949h246.238c15.671 0 26.861 13.433 26.861 26.861s-11.198 29.099-26.861 29.099z" />
<glyph unicode="&#xe92c;" glyph-name="sum" data-tags="sum" d="M512 890.731c-256.899 0-464.064-207.165-464.064-464.064s207.165-464.064 464.064-464.064 464.064 207.165 464.064 464.064-207.165 464.064-464.064 464.064zM512 17.843c-226.511 0-408.824 185.066-408.824 408.824 0 226.511 185.066 408.824 408.824 408.824s408.824-182.313 408.824-408.824c0-226.511-182.313-408.824-408.824-408.824zM782.709 454.287h-541.403c-16.578 0-27.62-11.042-27.62-27.62s11.042-27.62 27.62-27.62h541.403c16.578 0 27.62 11.042 27.62 27.62s-11.042 27.62-27.62 27.62z" />
<glyph unicode="&#xe92d;" glyph-name="add3" data-tags="add3" d="M712.166 852.011h-400.318c-122.326 0-225.178-100.076-225.178-225.178v-400.318c0-122.326 100.076-225.178 225.178-225.178h400.318c122.326 0 225.178 100.076 225.178 225.178v400.318c0 122.326-102.866 225.178-225.178 225.178zM881.74 226.501c0-91.734-75.064-169.588-169.588-169.588h-400.318c-91.734 0-169.588 75.064-169.588 169.588v400.318c0 91.734 75.064 169.588 169.588 169.588h400.318c91.734 0 169.588-75.064 169.588-169.588v-400.318zM756.638 454.469h-216.836v222.402c0 16.684-11.118 27.802-27.802 27.802s-27.802-11.118-27.802-27.802v-222.402h-216.836c-16.684 0-27.802-11.118-27.802-27.802s11.118-27.802 27.802-27.802h216.836v-222.402c0-16.684 11.118-27.802 27.802-27.802s27.802 11.118 27.802 27.802v222.402h216.836c16.684 0 27.802 11.118 27.802 27.802s-11.118 27.802-27.802 27.802z" />
<glyph unicode="&#xe92e;" glyph-name="add22" data-tags="add22" d="M890.85 451.593h-353.924v353.924c0 14.952-9.974 24.926-24.926 24.926s-24.926-9.974-24.926-24.926v-353.924h-353.924c-14.952 0-24.926-9.974-24.926-24.926s9.974-24.926 24.926-24.926h353.924v-353.924c0-14.952 9.974-24.926 24.926-24.926s24.926 9.974 24.926 24.926v353.924h353.924c14.952 0 24.926 9.974 24.926 24.926s-9.974 24.926-24.926 24.926z" />
<glyph unicode="&#xe92f;" glyph-name="choice" data-tags="choice" d="M975.052 730.635c-11.36 11.36-28.411 11.36-39.771 0l-548.274-548.274-298.288 295.437c-11.36 11.36-28.411 11.36-39.771 0s-11.36-28.411 0-39.771l318.168-318.168c5.68-5.68 14.2-8.52 19.891-8.52s14.2 2.84 19.891 8.52l568.154 568.154c11.36 14.2 11.36 31.251 0 42.611z" />
<glyph unicode="&#xe930;" glyph-name="delete6" data-tags="delete6" d="M549.972 426.667l344.468 344.468c10.844 10.844 10.844 27.128 0 37.972s-27.128 10.844-37.972 0l-344.468-344.468-344.468 344.468c-10.844 10.844-27.128 10.844-37.972 0s-10.844-27.128 0-37.972l344.468-344.468-344.468-344.468c-10.844-10.844-10.844-27.128 0-37.972 5.428-5.428 13.564-8.136 18.992-8.136s13.564 2.708 18.992 8.136l344.468 344.468 344.468-344.468c5.428-5.428 13.564-8.136 18.992-8.136s13.564 2.708 18.992 8.136c10.844 10.844 10.844 27.128 0 37.972l-344.468 344.468z" />
<glyph unicode="&#xe931;" glyph-name="fullscreen" data-tags="fullscreen" d="M889.546 449.277h-700.835l361.725 361.725c9.042 9.042 9.042 22.61 0 31.652s-22.61 9.042-31.652 0l-400.156-400.156c0 0-2.263-2.263-2.263-4.521s-2.263-2.263-2.263-4.521-2.263-6.784-2.263-9.042c0-2.263 0-6.784 2.263-9.042 0-2.263 2.263-2.263 2.263-2.263 0-2.263 2.263-2.263 2.263-4.521l400.156-400.156c4.521-4.521 11.305-6.784 15.826-6.784s11.305 2.263 15.826 6.784c9.042 9.042 9.042 22.61 0 31.652l-361.725 361.725h698.577c13.563 0 22.61 9.042 22.61 22.61s-9.042 24.868-20.347 24.868z" />
<glyph unicode="&#xe932;" glyph-name="reduction" data-tags="reduction" horiz-adv-x="1008" d="M1010.403 435.307c0 2.464-2.464 4.936-4.936 7.4 0 0 0 0 0 2.464l-338.072 333.136c-9.872 9.872-24.68 9.872-34.544 0s-9.872-24.68 0-34.544l293.656-293.656h-518.208c-14.808 0-24.68-9.872-24.68-24.68s9.872-24.68 24.68-24.68h520.68l-296.12-293.656c-9.872-9.872-9.872-24.68 0-34.544 4.936-4.936 12.336-7.4 17.272-7.4s12.336 2.464 17.272 7.4l335.6 335.6c0 0 0 0 0 2.464 2.464 2.464 2.464 4.936 4.936 7.4 4.936 4.936 4.936 9.872 2.464 17.272zM220.753 802.987h-143.128c-34.544 0-64.16-29.616-64.16-64.16v-624.32c0-34.544 29.616-64.16 64.16-64.16h145.592c34.544 0 64.16 29.616 64.16 64.16v624.32c-2.464 34.544-29.616 64.16-66.624 64.16zM235.555 112.043c0-7.4-7.4-14.808-14.808-14.808h-143.128c-7.4 0-14.808 7.4-14.808 14.808v626.792c0 7.4 7.4 14.808 14.808 14.808h145.592c7.4 0 14.808-7.4 14.808-14.808v-626.792z" />
<glyph unicode="&#xe933;" glyph-name="delete5" data-tags="delete5" d="M782.808 576.579c-14.504 0-24.176-9.672-24.176-24.176v-418.304c0-43.52-33.848-77.376-77.376-77.376h-336.096c-43.52 0-77.376 33.848-77.376 77.376v418.304c0 14.504-9.672 24.176-24.176 24.176s-24.176-9.672-24.176-24.176v-418.304c0-70.12 55.616-125.736 125.736-125.736h336.096c70.12 0 125.736 55.616 125.736 125.736v418.304c0 12.088-12.088 24.176-24.176 24.176zM906.128 680.547h-157.168v74.96c0 50.776-38.688 89.464-84.624 89.464h-307.080c-45.944 0-84.624-41.104-84.624-89.464v-74.96h-154.752c-14.504 0-24.176-9.672-24.176-24.176s9.672-24.176 24.176-24.176h790.664c14.504 0 24.176 9.672 24.176 24.176-2.416 12.088-12.088 24.176-26.6 24.176zM703.016 680.547h-382.032v74.96c0 24.176 16.928 41.104 36.272 41.104h309.496c19.344 0 36.272-19.344 36.272-41.104v-74.96zM444.296 189.707v362.688c0 14.504-9.672 24.176-24.176 24.176s-24.176-9.672-24.176-24.176v-362.688c0-14.504 9.672-24.176 24.176-24.176s24.176 9.672 24.176 24.176zM628.064 189.707v362.688c0 14.504-9.672 24.176-24.176 24.176s-24.176-9.672-24.176-24.176v-362.688c0-14.504 9.672-24.176 24.176-24.176s24.176 9.672 24.176 24.176z" />
<glyph unicode="&#xe934;" glyph-name="address" data-tags="address" d="M512 904.351c-202.659 0-369.117-164.050-369.117-369.117 0-287.092 337.759-566.951 352.234-579.018 4.825-4.825 9.65-4.825 14.475-4.825s12.067 2.417 14.475 4.825c14.475 12.067 352.234 296.742 352.234 579.018 4.825 202.659-161.642 369.117-364.292 369.117zM512 6.883c-65.142 57.9-320.867 296.742-320.867 528.351 0 176.117 142.342 320.867 320.867 320.867 176.117 0 320.867-144.75 320.867-320.867 0-226.784-255.734-470.451-320.867-528.351zM516.825 742.709c-108.567 0-197.834-89.267-197.834-197.834s89.267-197.834 197.834-197.834c108.567 0 197.834 89.267 197.834 197.834s-89.267 197.834-197.834 197.834zM516.825 395.3c-82.025 0-149.575 67.55-149.575 149.575s67.55 149.575 149.575 149.575c82.025 0 149.575-67.55 149.575-149.575s-67.55-149.575-149.575-149.575z" />
<glyph unicode="&#xe935;" glyph-name="appendix" data-tags="appendix" d="M893.785 491.129l-342.123 339.643c-9.92 9.92-24.791 9.92-34.711 0s-9.92-24.791 0-34.711l339.643-339.643c42.142-42.142 66.933-101.644 66.933-161.146 0-61.982-24.791-118.995-66.933-161.146s-101.644-66.933-161.146-66.933-118.995 24.791-161.146 66.933l-391.705 389.225c-27.271 27.271-42.142 64.462-42.142 104.124s14.871 74.373 42.142 104.124c57.022 57.022 148.746 57.022 205.768 0l406.576-406.576c12.4-12.4 19.831-27.271 19.831-44.622s-7.44-32.231-19.831-44.622c-24.791-24.791-66.933-24.791-89.253 0l-292.541 290.061c-9.92 9.92-24.791 9.92-34.711 0s-9.92-24.791 0-34.711l292.541-292.541c22.311-22.311 49.582-32.231 79.333-32.231s59.502 12.4 79.333 32.231c22.311 22.311 32.231 49.582 32.231 79.333s-12.4 59.502-32.231 79.333l-406.576 409.056c-76.853 76.853-200.808 76.853-275.181 0-37.191-37.191-57.022-86.773-57.022-138.835s19.831-101.644 57.022-138.835l391.705-391.705c54.542-54.542 126.435-81.813 195.848-81.813 71.893 0 141.315 27.271 195.848 81.813 52.062 52.062 81.813 121.475 81.813 195.848s-27.271 143.786-79.333 198.328z" />
<glyph unicode="&#xe936;" glyph-name="download2" data-tags="download2" d="M910.789 359.374c-14.952 0-24.926-9.974-24.926-24.926v-194.412c0-37.389-29.913-67.293-67.293-67.293h-615.635c-37.389 0-67.293 29.913-67.293 67.293v194.412c0 14.952-9.974 24.926-24.926 24.926s-24.926-9.974-24.926-24.926v-194.412c0-64.804 52.341-117.145 117.145-117.145h615.635c64.804 0 117.145 52.341 117.145 117.145v194.412c0 14.952-9.974 24.926-24.926 24.926zM497.048 242.229c4.987-2.489 9.974-4.987 14.952-4.987s9.974 2.489 14.952 4.987l254.229 179.46c12.463 7.476 14.952 22.428 4.987 34.891-7.476 12.463-22.428 14.952-34.891 4.987l-214.351-152.036v495.995c0 14.952-9.974 24.926-24.926 24.926s-24.926-9.974-24.926-24.926v-495.995l-214.351 152.036c-12.463 7.476-27.415 4.987-34.891-4.987-7.476-12.463-4.987-27.415 4.987-34.891l254.229-179.46z" />
<glyph unicode="&#xe937;" glyph-name="edit" data-tags="edit" d="M870.802 682.219l-103.25 103.25c-33.554 33.554-87.762 33.554-121.326 0l-431.086-431.086c-5.166-5.166-15.488-15.488-82.606-237.486-5.166-20.654 0-41.298 12.91-56.786 10.322-10.322 25.81-15.488 38.72-15.488 5.166 0 10.322 0 15.488 2.578 221.998 69.696 232.32 77.44 237.486 82.606l431.086 431.086c15.488 15.488 25.81 38.72 25.81 61.952 2.578 23.232-7.744 43.886-23.232 59.374zM184.174 93.675c-2.578 0-2.578 0-5.166 0 0 0-2.578 2.578 0 5.166 20.654 61.952 41.298 129.070 56.786 172.946l123.904-123.904c-43.886-12.91-110.994-33.554-175.534-54.208zM408.75 173.693l-149.714 149.714 325.248 325.248 152.302-152.302-327.826-322.67zM834.67 597.035l-64.53-61.952-149.714 149.714 61.952 61.952c12.91 12.91 36.142 12.91 49.042 0l103.25-103.25c0 0 0 0 0 0 7.744-7.744 10.322-15.488 10.322-23.232s-5.166-15.488-10.322-23.232zM561.042 581.547l-232.32-232.32c-10.322-10.322-10.322-25.81 0-36.142 5.166-5.166 12.91-7.744 18.066-7.744s12.91 2.578 18.066 7.744l232.32 232.32c10.322 10.322 10.322 25.81 0 36.142s-25.81 10.322-36.142 0z" />
<glyph unicode="&#xe938;" glyph-name="hidden" data-tags="hidden" d="M669.751 361.714c-51.034-20.882-104.396-30.159-157.751-30.159-227.346 0-366.536 176.305-415.249 250.542-4.642 6.963-4.642 16.24 0 23.196 23.196 34.801 74.237 104.396 150.788 160.072 9.277 6.963 11.598 23.196 4.642 32.48s-23.196 11.598-32.48 4.642c-83.514-60.318-136.869-134.548-162.386-171.67-13.919-23.196-13.919-51.034 0-74.237 53.355-81.193 204.143-271.424 454.692-271.424 60.318 0 118.315 11.598 173.991 32.48 11.598 4.642 18.561 18.561 13.919 30.159-4.642 13.919-18.561 18.561-30.159 13.919zM966.692 633.131c-53.355 81.193-204.143 271.424-454.692 271.424-60.318 0-118.315-11.598-173.991-32.48-11.598-4.642-18.561-18.561-13.919-30.159s18.561-18.561 30.159-13.919c51.034 20.882 104.396 30.159 157.751 30.159 227.346 0 366.536-176.305 415.249-250.542 4.642-6.963 4.642-16.24 0-23.196-23.196-34.801-74.237-104.396-150.788-160.072-9.277-6.963-11.598-23.196-4.642-32.48 4.642-6.963 11.598-9.277 18.561-9.277 4.642 0 9.277 2.321 13.919 4.642 83.514 60.318 136.869 134.548 162.386 171.67 13.919 20.882 13.919 51.034 0 74.237zM293.938 25.337c0-40.997-33.233-74.237-74.237-74.237s-74.237 33.233-74.237 74.237c0 40.997 33.233 74.237 74.237 74.237s74.237-33.233 74.237-74.237zM586.237 25.337c0-40.997-33.233-74.237-74.237-74.237s-74.237 33.233-74.237 74.237c0 40.997 33.233 74.237 74.237 74.237s74.237-33.233 74.237-74.237zM878.536 25.337c0-40.997-33.233-74.237-74.237-74.237s-74.237 33.233-74.237 74.237c0 40.997 33.233 74.237 74.237 74.237s74.237-33.233 74.237-74.237zM781.103 292.119c4.642-4.642 11.598-6.963 16.24-6.963s11.598 2.321 16.24 6.963c9.277 9.277 9.277 23.196 0 32.48l-570.679 573c-9.277 9.277-23.196 9.277-32.48 0s-9.277-23.196 0-32.48l570.679-573z" />
<glyph unicode="&#xe939;" glyph-name="display" data-tags="display" d="M512 773.676c-94.853 0-173.508-78.655-173.508-173.508s78.655-173.508 173.508-173.508c94.853 0 173.508 78.655 173.508 173.508s-78.655 173.508-173.508 173.508zM512 472.933c-69.399 0-127.235 57.836-127.235 127.235s57.836 127.235 127.235 127.235c69.399 0 127.235-57.836 127.235-127.235 0-71.713-57.836-127.235-127.235-127.235zM979.309 637.185c-55.522 83.283-208.204 277.61-467.309 277.61-256.791 0-411.787-194.327-467.309-277.61-16.191-23.133-16.191-53.208 0-76.341 55.522-83.283 208.204-277.61 467.309-277.61 256.791 0 411.787 194.327 467.309 277.61 13.877 23.133 13.877 53.208 0 76.341zM939.978 586.291c-50.894-76.341-192.013-256.791-427.978-256.791-233.651 0-377.084 180.443-427.978 256.791-4.628 6.942-4.628 18.505 0 25.447v0c50.894 78.655 194.327 259.098 427.978 259.098s377.084-180.443 427.978-256.791c4.628-9.256 4.628-18.505 0-27.761zM287.598 14.88c0-42.163-34.178-76.341-76.341-76.341s-76.341 34.178-76.341 76.341c0 42.163 34.178 76.341 76.341 76.341s76.341-34.178 76.341-76.341zM588.341 14.88c0-42.163-34.178-76.341-76.341-76.341s-76.341 34.178-76.341 76.341c0 42.163 34.178 76.341 76.341 76.341s76.341-34.178 76.341-76.341zM889.084 14.88c0-42.163-34.178-76.341-76.341-76.341s-76.341 34.178-76.341 76.341c0 42.163 34.178 76.341 76.341 76.341s76.341-34.178 76.341-76.341z" />
<glyph unicode="&#xe93a;" glyph-name="visible" data-tags="visible" d="M512 606.363c-98.016 0-179.696-79.347-179.696-179.696s79.347-179.696 179.696-179.696 179.696 79.347 179.696 179.696-81.68 179.696-179.696 179.696zM512 293.646c-72.343 0-133.021 60.678-133.021 133.021s58.345 133.021 133.021 133.021 133.021-58.345 133.021-133.021-60.678-133.021-133.021-133.021zM995.081 466.338c-56.007 86.346-217.034 287.049-483.081 287.049s-427.069-200.698-483.081-287.049c-16.336-23.335-16.336-53.674 0-79.347 56.007-86.346 217.034-287.049 483.081-287.049s427.069 200.698 483.081 289.382c14.003 21.002 14.003 53.674 0 77.014zM955.405 412.664c-51.341-79.347-200.698-266.042-443.405-266.042s-392.064 186.695-443.405 266.042c-4.666 9.337-4.666 18.669 0 28.006v0c51.341 79.347 200.698 266.042 443.405 266.042s392.064-186.695 443.405-266.042c4.666-9.337 4.666-18.669 0-28.006z" />
<glyph unicode="&#xe93b;" glyph-name="invisible" data-tags="invisible" d="M647.474 351.921c2.338 0 4.671-2.338 7.009-2.338 9.342 0 18.684 7.009 21.022 16.351 7.009 18.684 9.342 39.706 9.342 58.395 0 98.101-79.417 175.185-175.185 175.185-18.684 0-39.706-2.338-58.395-9.342-11.68-4.671-18.684-18.684-14.013-30.364s18.684-18.684 30.364-14.013c14.013 4.671 28.031 7.009 42.044 7.009 72.408 0 128.465-58.395 128.465-128.465 0-14.013-2.338-28.031-7.009-42.044-2.338-11.68 4.671-25.693 16.351-30.364zM376.526 499.075c-11.68 4.671-25.693-2.338-30.364-14.013-7.009-18.684-9.342-39.706-9.342-58.395 0-98.101 79.417-175.185 175.185-175.185 18.684 0 39.706 2.338 58.395 9.342 11.68 4.671 18.684 18.684 14.013 30.364s-18.684 18.684-30.364 14.013c-14.013-4.671-28.031-7.009-42.044-7.009-72.408 0-128.465 58.395-128.465 128.465 0 14.013 2.338 28.031 7.009 42.044 4.671 11.68-2.338 25.693-14.013 30.364zM227.034 741.997c-9.342 9.342-23.36 9.342-32.702 0s-9.342-23.36 0-32.702l595.62-595.62c4.671-4.671 11.68-7.009 16.351-7.009s11.68 2.338 16.351 7.009c9.342 9.342 9.342 23.36 0 32.702l-595.62 595.62zM675.505 181.412c-51.386-21.022-107.443-30.364-163.505-30.364-238.251 0-383.067 182.189-434.453 261.606-4.671 7.009-4.671 18.684 0 25.693 23.36 37.373 77.079 107.443 156.496 165.838 9.342 7.009 11.68 23.36 4.671 32.702s-23.36 11.68-32.702 4.671c-86.421-63.066-142.483-140.145-168.176-179.856-16.351-23.36-16.351-53.724 0-77.079 56.057-84.088 212.553-282.628 474.159-282.628 63.066 0 123.794 11.68 179.856 35.035 11.68 4.671 18.684 18.684 14.013 30.364-4.671 14.013-18.684 18.684-30.364 14.013zM986.159 464.040c-56.057 84.088-212.553 282.628-474.159 282.628-60.728 0-121.461-11.68-179.856-35.035-11.68-4.671-16.351-18.684-11.68-30.364s18.684-18.684 30.364-14.013c51.386 21.022 107.443 30.364 163.505 30.364 238.251 0 383.067-182.189 434.453-261.606 4.671-7.009 4.671-18.684 0-25.693-23.36-37.373-77.079-107.443-156.496-165.838-9.342-7.009-11.68-23.36-4.671-32.702 4.671-7.009 11.68-9.342 18.684-9.342 4.671 0 9.342 2.338 14.013 4.671 86.421 63.066 142.483 140.145 168.176 177.518 11.68 25.693 11.68 56.057-2.338 79.417z" />
<glyph unicode="&#xe93c;" glyph-name="woman" data-tags="woman" d="M942.886 439.197c-10.022 10.022-25.050 10.022-35.072 0l-185.382-185.382-75.15 75.15c50.1 57.614 77.658 132.774 77.658 210.432 0 87.68-32.564 167.846-95.194 230.476-60.122 60.122-142.796 95.194-230.476 95.194s-167.846-32.564-230.476-95.194c-60.122-60.122-95.194-142.796-95.194-230.476s32.564-167.846 95.194-230.476c60.122-60.122 142.796-95.194 230.476-95.194 77.658 0 152.818 27.558 210.432 77.658l75.15-75.15-185.382-185.382c-10.022-10.022-10.022-25.050 0-35.072 5.006-5.006 12.53-7.514 17.536-7.514s12.53 2.508 17.536 7.514l185.382 185.382 117.746-117.746c5.006-5.006 12.53-7.514 17.536-7.514s12.53 2.508 17.536 7.514c10.022 10.022 10.022 25.050 0 35.072l-117.746 117.746 185.382 185.382c12.53 12.53 12.53 30.066 2.508 37.58zM592.166 346.501c-52.608-52.608-120.244-80.166-192.896-80.166s-142.796 27.558-192.896 80.166c-52.608 52.608-80.166 120.244-80.166 192.896s27.558 142.796 80.166 192.896c52.608 52.608 120.244 80.166 192.896 80.166s142.796-27.558 192.896-80.166c52.608-52.608 80.166-120.244 80.166-192.896 2.508-72.652-27.558-142.796-80.166-192.896z" />
<glyph unicode="&#xe93d;" glyph-name="male" data-tags="male" d="M904.36 844.347h-278.45c-15.188 0-25.31-10.122-25.31-25.31s10.122-25.31 25.31-25.31h217.698l-207.576-207.576c-58.224 50.63-134.164 78.468-212.632 78.468-88.6 0-169.606-32.904-232.886-96.194-60.752-60.752-96.194-144.286-96.194-232.886s32.904-169.606 96.194-232.886c63.28-63.28 146.824-96.194 232.886-96.194 83.534 0 167.068 32.904 232.886 96.194 60.752 60.752 96.194 144.286 96.194 232.886 0 78.468-27.848 154.418-78.468 212.632l207.576 207.576v-217.698c0-15.188 10.122-25.31 25.31-25.31s25.31 10.122 25.31 25.31v280.988c-2.528 15.188-12.66 25.31-27.848 25.31zM699.322 335.539c0-73.412-27.848-144.286-81.006-194.916-108.854-108.854-283.516-108.854-392.36 0-53.158 53.158-81.006 121.504-81.006 194.916s27.848 144.286 81.006 194.916c53.158 53.158 121.504 81.006 194.916 81.006s144.286-27.848 194.916-81.006 83.534-118.976 83.534-194.916z" />
<glyph unicode="&#xe93e;" glyph-name="move-down" data-tags="move down" d="M925.868 404.595c-8.28 11.036-27.596 13.792-38.632 5.524l-347.652-270.388v629.076c0 16.56-11.036 27.596-27.596 27.596s-27.596-11.036-27.596-27.596v-629.076l-347.652 267.632c-11.036 8.28-30.352 8.28-38.632-5.524-8.28-11.036-8.28-30.352 5.524-38.632l391.796-303.508c0 0 2.756-2.756 2.756-2.756s2.756 0 2.756-2.756c2.756 0 5.524-2.756 11.036-2.756s5.524 0 11.036 2.756c0 0 2.756 0 2.756 2.756 0 0 2.756 0 2.756 2.756l391.796 303.508c11.036 11.036 13.792 27.596 5.524 41.388z" />
<glyph unicode="&#xe93f;" glyph-name="move-up" data-tags="move up" d="M920.74 487.431l-392.168 303.796c-2.756 0-2.756 2.756-5.524 2.756l-2.756 2.756c-5.524 2.756-13.804 2.756-19.328 0-2.756 0-2.756 0-2.756-2.756-2.756 0-2.756-2.756-5.524-2.756l-392.168-303.796c-11.048-8.28-13.804-27.62-5.524-38.668s27.62-13.804 38.668-5.524l350.744 270.652v-629.676c0-16.572 13.804-27.62 27.62-27.62s27.62 13.804 27.62 27.62v629.676l347.976-270.652c5.524-5.524 11.048-5.524 16.572-5.524 8.28 0 16.572 5.524 22.096 11.048 11.048 13.804 8.28 30.376-5.524 38.668z" />
<glyph unicode="&#xe940;" glyph-name="publish" data-tags="publish" d="M928.973 861.551c-7.673 7.673-20.465 7.673-28.138 2.554l-803.254-501.398c-10.238-5.119-12.792-17.911-10.238-28.138s12.792-17.911 23.019-20.465l368.37-33.257 171.393-281.391c5.119-7.673 12.792-12.792 23.019-12.792 0 0 2.554 0 2.554 0 10.238 2.554 17.911 7.673 20.465 17.911l243.026 826.284c0 12.792-2.554 23.019-10.238 30.703zM660.374 76.197l-145.809 243.026c-5.119 7.673-10.238 10.238-20.465 12.792l-304.421 28.138 680.464 422.092-209.769-706.048z" />
<glyph unicode="&#xe941;" glyph-name="question" data-tags="question" d="M512 898.923c-260.845 0-472.256-211.411-472.256-472.256s211.411-472.256 472.256-472.256 472.256 211.411 472.256 472.256c0 260.845-211.411 472.256-472.256 472.256zM512 9.321c-230.637 0-417.346 186.709-417.346 417.346s186.709 417.346 417.346 417.346 417.346-186.709 417.346-417.346c0-230.637-186.709-417.346-417.346-417.346zM512 728.687c-41.19 0-82.365-16.473-112.573-46.681s-46.681-68.645-46.681-112.573c0-16.473 10.982-27.455 27.455-27.455s27.455 10.982 27.455 27.455c0 27.455 10.982 52.172 30.208 74.136 21.964 19.226 46.681 30.208 74.136 30.208s52.172-10.982 74.136-30.208c19.226-19.226 30.208-46.681 30.208-74.136s-10.982-52.172-30.208-74.136c-2.753-2.753-10.982-10.982-19.226-16.473-32.946-24.717-82.365-63.154-82.365-123.555v-38.437c0-16.473 10.982-27.455 27.455-27.455s27.455 10.982 27.455 27.455v41.19c0 35.699 32.946 60.401 60.401 82.365 8.244 8.244 16.473 13.735 24.717 19.226 30.208 30.208 46.681 68.645 46.681 112.573 0 41.19-16.473 82.365-46.681 112.573-30.208 27.455-71.383 43.928-112.573 43.928zM558.681 201.521c0-25.783-20.898-46.681-46.681-46.681s-46.681 20.898-46.681 46.681c0 25.783 20.898 46.681 46.681 46.681s46.681-20.898 46.681-46.681z" />
<glyph unicode="&#xe942;" glyph-name="recharge" data-tags="recharge" d="M657.162 631.315c-11.896 7.136-26.176 2.376-33.312-7.136l-102.32-173.712c0-2.376 0-2.376-2.376-4.76h-14.28c0 2.376 0 2.376-2.376 4.76l-104.704 173.712c-7.136 11.896-21.416 14.28-33.312 7.136s-14.28-21.416-7.136-33.312l92.808-154.672h-71.381c-14.28 0-23.79-9.52-23.79-23.79s9.52-23.79 23.79-23.79h109.464v-54.728h-109.464c-14.28 0-23.79-9.52-23.79-23.79s9.52-23.79 23.79-23.79h109.464v-109.464c0-14.28 9.52-23.79 23.79-23.79s23.79 9.52 23.79 23.79v109.464h109.464c14.28 0 23.79 9.52 23.79 23.79s-9.52 23.79-23.79 23.79h-109.464v54.728h109.464c14.28 0 23.79 9.52 23.79 23.79s-9.52 23.79-23.79 23.79h-71.381l92.808 154.672c7.136 11.896 2.376 26.176-9.52 33.312zM654.776 721.739c0-14.28 9.52-23.79 23.79-23.79h104.704v-104.704c0-14.28 9.52-23.79 23.79-23.79s23.79 9.52 23.79 23.79v104.704h104.704c14.28 0 23.79 9.52 23.79 23.79s-9.52 23.79-23.79 23.79h-104.704v102.32c0 14.28-9.52 23.79-23.79 23.79s-23.79-9.52-23.79-23.79v-104.704h-104.704c-11.896 2.376-23.79-9.52-23.79-21.416zM945.088 578.963c-4.76 11.896-19.040 19.040-30.936 14.28s-19.040-19.040-14.28-30.936c16.656-45.216 23.79-90.424 23.79-138.016 0-226.064-183.232-411.672-411.672-411.672s-411.672 187.992-411.672 414.048 185.608 411.672 411.672 411.672c45.216 0 92.808-7.136 135.64-23.79 11.896-4.76 26.176 2.376 30.936 14.28s-2.376 26.176-14.28 30.936c-47.592 16.656-99.944 26.176-152.296 26.176-252.24 0-459.264-207.024-459.264-459.264s204.648-459.264 459.264-459.264 459.264 207.024 459.264 459.264c0 52.352-9.52 104.704-26.176 152.296z" />
<glyph unicode="&#xe943;" glyph-name="refurbish1" data-tags="refurbish1" d="M553.96 864.683c-241.3 0-438.016-196.716-438.016-438.016 0-18.356 2.624-34.1 2.624-52.456l-47.208 34.1c-10.496 7.872-28.852 5.248-36.724-5.248s-5.248-28.852 5.248-36.724l102.288-76.060c5.248-2.624 10.496-5.248 15.732-5.248 0 0 2.624 0 2.624 0 7.872 0 13.12 5.248 18.356 10.496l76.060 102.288c7.872 10.496 5.248 28.852-5.248 36.724s-28.852 5.248-36.724-5.248l-39.348-55.080c-2.624 18.356-5.248 36.724-5.248 52.456 0 212.448 173.112 385.56 385.56 385.56s385.56-173.112 385.56-385.56-173.112-385.56-385.56-385.56c-26.228 0-49.832 2.624-76.060 7.872-13.12 2.624-28.852-5.248-31.476-20.98-2.624-13.12 5.248-28.852 20.98-31.476 28.852-5.248 57.704-7.872 86.556-7.872 241.3 0 438.016 196.716 438.016 438.016s-196.716 438.016-438.016 438.016z" />
<glyph unicode="&#xe944;" glyph-name="remarks" data-tags="remarks" d="M984.381 819.366c2.847 25.606-5.694 51.229-25.606 68.294s-45.535 25.606-71.141 22.759l-327.252-19.912c0 0-2.847 0-2.847 0-39.841-5.694-76.835-25.606-105.288-54.059l-369.94-375.634c-28.453-28.453-42.688-65.447-42.688-105.288s17.082-76.835 45.535-105.288l270.329-264.652c28.453-28.453 65.447-42.688 102.441-42.688s76.835 14.235 105.288 45.535l367.093 375.634c28.453 31.3 48.382 71.141 54.059 113.829 0 0 0 2.847 0 2.847v338.64zM927.458 822.213c0 0 0-2.847 0-2.847v-341.47c-2.847-28.453-17.082-56.906-36.994-76.835l-369.94-372.787c-34.147-36.994-93.9-36.994-128.047 0l-270.329 264.652c-17.082 17.082-25.606 39.841-28.453 65.447 0 25.606 8.541 48.382 25.606 65.447l369.94 375.634c19.912 19.912 45.535 34.147 71.141 39.841l332.946 14.235c0 0 2.847 0 2.847 0 8.541 0 17.082 0 22.759-5.694s8.541-17.082 8.541-25.606zM668.517 702.69c-34.147 0-65.447-14.235-88.223-36.994s-36.994-56.906-36.994-88.223c0-34.147 14.235-65.447 36.994-88.223 25.606-22.759 56.906-36.994 88.223-36.994s65.447 11.388 91.053 36.994c0 0 0 0 0 0 48.382 48.382 48.382 130.894-2.847 179.276-22.759 22.759-54.059 34.147-88.223 34.147zM719.729 529.108c-25.606-28.453-71.141-28.453-96.747 0-28.453 25.606-28.453 71.141 0 96.747 14.235 14.235 31.3 19.912 48.382 19.912 0 0 0 0 0 0 17.082 0 34.147-5.694 48.382-19.912 25.606-25.606 25.606-68.294 0-96.747z" />
<glyph unicode="&#xe945;" glyph-name="retransmission" data-tags="retransmission" d="M904.165 846.059h-239.647c-16.344 0-27.227-10.896-27.227-27.227s10.896-27.227 27.227-27.227h174.297l-405.772-403.048c-10.896-10.896-10.896-27.227 0-38.123 5.448-5.448 13.62-8.172 19.068-8.172s13.62 2.724 19.068 8.172l405.772 403.048v-174.297c0-16.344 10.896-27.227 27.227-27.227s27.227 10.896 27.227 27.227v239.647c0 13.62-13.62 27.227-27.227 27.227zM852.422 497.478c-16.344 0-27.227-10.896-27.227-27.227v-313.182c0-51.743-43.571-95.314-95.314-95.314h-487.479c-51.743 0-95.314 43.571-95.314 95.314v487.479c0 51.743 43.571 95.314 95.314 95.314h313.182c16.344 0 27.227 10.896 27.227 27.227s-10.896 27.227-27.227 27.227h-313.182c-81.694 0-149.781-68.087-149.781-149.781v-487.479c0-81.694 68.087-149.781 149.781-149.781h487.479c81.694 0 149.781 68.087 149.781 149.781v313.182c0 13.62-10.896 27.227-27.227 27.227z" />
<glyph unicode="&#xe946;" glyph-name="ruzhi" data-tags="ruzhi" d="M758.695 293.252c10.073 10.073 10.073 25.177 0 35.239-50.343 47.833-110.759 78.041-176.217 93.145 80.551 42.791 135.936 125.863 135.936 224.039-5.031 138.457-118.311 254.247-256.768 254.247s-254.247-113.28-254.247-254.247c0-95.655 55.385-181.248 135.936-224.039-163.623-35.239-284.455-171.175-289.497-334.809 0-37.76 2.521-75.52 12.583-113.28 2.521-10.073 12.583-17.625 25.177-17.625 2.521 0 5.031 0 7.552 0 12.583 2.521 22.656 17.625 17.625 30.208-7.552 32.729-12.583 65.447-12.583 98.176 2.521 163.623 146.009 294.528 317.184 294.528h78.041c83.072 0 163.623-32.729 224.039-88.103 10.073-7.552 25.177-7.552 35.239 2.521zM461.657 441.771c-110.759 0-203.904 90.624-203.904 203.904 0 110.759 90.624 203.904 203.904 203.904s203.904-90.624 203.904-203.904c-2.521-113.28-93.145-203.904-203.904-203.904zM944.985 129.618h-98.176v98.176c0 15.104-10.073 25.177-25.177 25.177s-25.177-10.073-25.177-25.177v-98.176h-98.176c-15.104 0-25.177-10.073-25.177-25.177s10.073-25.177 25.177-25.177h98.176v-98.176c0-15.104 10.073-25.177 25.177-25.177s25.177 10.073 25.177 25.177v98.176h98.176c15.104 0 25.177 10.073 25.177 25.177s-12.583 25.177-25.177 25.177z" />
<glyph unicode="&#xe947;" glyph-name="time" data-tags="time" d="M512 876.971c-247.276 0-450.304-203.028-450.304-450.304s203.028-450.304 450.304-450.304 450.304 203.028 450.304 450.304-203.028 450.304-450.304 450.304zM512 28.423c-218.64 0-398.244 179.604-398.244 398.244s179.604 398.244 398.244 398.244 398.244-179.604 398.244-398.244c0-218.64-179.604-398.244-398.244-398.244zM735.852 411.055h-242.076v249.876c0 15.612-10.412 26.024-26.024 26.024s-26.024-10.412-26.024-26.024v-275.912c0-15.612 10.412-26.024 26.024-26.024h268.1c15.612 0 26.024 10.412 26.024 26.024s-13.012 26.024-26.024 26.024z" />
<glyph unicode="&#xe948;" glyph-name="triangle" data-tags="triangle" d="M992.915 677.581c-10.453 10.453-26.136 10.453-36.589 0l-444.319-444.319-444.319 444.319c-10.453 10.453-26.136 10.453-36.589 0s-10.453-26.136 0-36.589l462.617-462.617c5.23-5.23 10.453-7.838 18.298-7.838s13.068 2.615 18.298 7.838l462.617 462.617c10.453 7.838 10.453 26.136 0 36.589z" />
<glyph unicode="&#xe949;" glyph-name="success" data-tags="success" d="M512 885.163c-251.264 0-458.496-207.232-458.496-458.496s204.644-458.496 458.496-458.496 458.496 207.232 458.496 458.496c0 251.264-207.232 458.496-458.496 458.496zM512 19.979c-222.772 0-406.688 181.328-406.688 406.688 0 222.772 181.328 406.688 406.688 406.688s406.688-181.328 406.688-406.688c0-222.772-183.916-406.688-406.688-406.688zM734.772 566.551l-259.040-259.040-150.236 150.236c-10.364 10.364-25.904 10.364-36.268 0s-10.364-25.904 0-36.268l168.376-168.376c5.176-5.176 12.952-7.776 18.128-7.776s12.952 2.588 18.128 7.776l277.168 277.168c10.364 10.364 10.364 25.904 0 36.268s-25.904 10.364-36.268 0z" />
<glyph unicode="&#xe94a;" glyph-name="report" data-tags="report" d="M1024 494.934c0 2.626 0 2.626 0 2.626 0 2.626 0 2.626-2.626 5.251 0 0 0 0 0 0l-154.913 265.19c-10.503 18.379-31.508 31.508-55.138 31.508h-598.646c-23.631 0-44.636-13.128-55.138-31.508l-154.913-265.19c0 0 0 0 0 0 0-2.626 0-2.626-2.626-5.251 0 0 0-2.626 0-2.626s0 0 0-2.626v-351.836c0-47.262 39.385-86.646 86.646-86.646h848.082c47.262 0 86.646 39.385 86.646 86.646l2.626 354.462c0 0 0 0 0 0zM194.297 746.995c5.251 7.877 10.503 10.503 18.379 10.503h596.020c7.877 0 15.754-5.251 18.379-10.503l136.533-233.682h-241.559c-36.759 0-68.267-21.005-84.021-55.138-18.379-42.010-68.267-70.892-123.405-70.892s-105.026 28.882-123.405 70.892c-13.128 31.508-47.262 55.138-84.021 55.138h-254.687l141.785 233.682zM981.99 140.472c0-26.256-21.005-44.636-44.636-44.636h-850.708c-26.256 0-44.636 21.005-44.636 44.636v330.831h270.441c18.379 0 36.759-10.503 44.636-28.882 23.631-57.764 89.272-97.149 162.79-97.149s139.159 39.385 162.79 97.149c7.877 15.754 23.631 28.882 44.636 28.882h257.313v-330.831zM706.297 350.523l-63.015-18.379c-5.251-2.626-10.503-5.251-13.128-13.128-2.626-5.251 0-13.128 5.251-15.754l57.764-55.138c2.626-2.626 7.877-5.251 10.503-5.251 5.251 0 7.877 2.626 13.128 5.251 5.251 7.877 5.251 18.379 0 23.631l-36.759 34.133 34.133 7.877c7.877 2.626 13.128 10.503 13.128 21.005-2.626 13.128-10.503 18.379-21.005 15.754zM380.718 332.144l-63.015 15.754c-7.877 2.626-18.379-2.626-21.005-13.128-2.626-7.877 2.626-18.379 13.128-21.005l34.133-7.877-36.759-34.133c-7.877-5.251-7.877-15.754 0-23.631 2.626-2.626 7.877-5.251 13.128-5.251s7.877 2.626 10.503 5.251l57.764 55.138c5.251 5.251 5.251 10.503 5.251 15.754-2.626 7.877-7.877 13.128-13.128 13.128zM519.877 258.626c-39.385 0-70.892-31.508-70.892-70.892 0-10.503 7.877-15.754 15.754-15.754 10.503 0 15.754 7.877 15.754 15.754 0 21.005 15.754 36.759 36.759 36.759s36.759-15.754 36.759-36.759c0-10.503 7.877-15.754 15.754-15.754s21.005 7.877 21.005 18.379c0 36.759-31.508 68.267-70.892 68.267z" />
<glyph unicode="&#xe94b;" glyph-name="operation" data-tags="operation" d="M188.416 432.811c0-52.030-42.178-94.208-94.208-94.208s-94.208 42.178-94.208 94.208c0 52.030 42.178 94.208 94.208 94.208s94.208-42.178 94.208-94.208zM604.16 432.811c0-52.030-42.178-94.208-94.208-94.208s-94.208 42.178-94.208 94.208c0 52.030 42.178 94.208 94.208 94.208s94.208-42.178 94.208-94.208zM1021.952 432.811c0-52.030-42.178-94.208-94.208-94.208s-94.208 42.178-94.208 94.208c0 52.030 42.178 94.208 94.208 94.208s94.208-42.178 94.208-94.208z" />
<glyph unicode="&#xe94c;" glyph-name="close" data-tags="close" d="M569.344 426.667l245.76 245.76c16.384 16.384 16.384 40.96 0 57.344s-40.96 16.384-57.344 0l-245.76-245.76-245.76 245.76c-16.384 16.384-40.96 16.384-57.344 0s-16.384-40.96 0-57.344l245.76-245.76-245.76-245.76c-16.384-16.384-16.384-40.96 0-57.344 8.192-8.192 18.432-12.288 28.672-12.288s20.48 4.096 28.672 12.288l245.76 245.76 245.76-245.76c8.192-8.192 18.432-12.288 28.672-12.288s20.48 4.096 28.672 12.288c16.384 16.384 16.384 40.96 0 57.344l-245.76 245.76z" />
<glyph unicode="&#xe94d;" glyph-name="required" data-tags="required" d="M811.008 498.347c-4.096 12.288-14.336 45.056-63.488 45.056-16.384 0-36.864-4.096-61.44-12.288 0 0-65.536-22.528-116.736-53.248 14.336 57.344 14.336 129.024 14.336 129.024 0 51.2-8.192 108.544-71.68 108.544s-71.68-57.344-71.68-108.544c0 0 2.048-69.632 14.336-126.976-2.048 0-2.048 2.048-4.096 2.048-32.768 20.48-77.824 38.912-114.688 51.2-24.576 8.192-45.056 12.288-61.44 12.288-49.152 0-59.392-34.816-63.488-45.056-18.432-59.392 32.768-86.016 81.92-100.352 38.912-12.288 86.016-22.528 124.928-24.576-32.768-28.672-67.584-67.584-88.064-96.256-22.528-32.768-34.816-57.344-34.816-77.824 0-30.72 20.48-45.056 28.672-51.2s22.528-14.336 38.912-14.336c26.624 0 51.2 18.432 81.92 59.392 0 0 38.912 57.344 63.488 110.592 22.528-55.296 63.488-112.64 63.488-112.64 30.72-40.96 55.296-59.392 81.92-59.392 16.384 0 30.72 8.192 38.912 14.336 6.144 6.144 28.672 20.48 28.672 51.2 0 20.48-12.288 45.056-34.816 77.824-20.48 26.624-53.248 65.536-86.016 94.208 38.912 4.096 88.064 12.288 126.976 26.624 38.912 12.288 61.44 26.624 73.728 43.008 20.48 24.576 12.288 49.152 10.24 57.344z" />
<glyph unicode="&#xe94e;" glyph-name="contract" data-tags="contract" d="M512 938.667c-281.722 0-512-230.278-512-512s227.828-512 512-512 509.55 230.278 509.55 512c2.45 281.722-225.378 512-509.55 512zM406.66 696.141c53.895 53.895 139.636 56.344 200.88 9.799s73.493-132.287 34.297-195.981c-7.349-12.249-17.148-22.048-26.947-34.297s-9.799-22.048 2.45-34.297c4.9-4.9 9.799-9.799 14.699-14.699 12.249-14.699 17.148-29.397 9.799-48.995-7.349-17.148-22.048-19.598-39.196-19.598-36.746 0-137.187 0-176.383 0-12.249 2.45-29.397 4.9-34.297 22.048-4.9 12.249-2.45 31.847 7.349 44.096 2.45 2.45 12.249 12.249 12.249 17.148 7.349 9.799 12.249 19.598 0 34.297-56.344 63.694-66.144 159.234-4.9 220.478zM722.679 193.94c0-9.799-4.9-14.699-14.699-14.699h-391.962c-7.349 0-14.699 4.9-14.699 14.699v12.249c0 7.349 4.9 14.699 14.699 14.699h391.962c7.349 0 14.699-4.9 14.699-14.699v-12.249zM756.976 255.184c-2.45-9.799-9.799-19.598-19.598-19.598h-453.206c-12.249 0-19.598 9.799-19.598 19.598 0 12.249 0 19.598 0 26.947 0 29.397 12.249 48.995 44.096 48.995 132.287 0 269.474 0 401.761 0 31.847 0 44.096-19.598 44.096-48.995 2.45-7.349 2.45-17.148 2.45-26.947z" />
</font>
</defs>
</svg>
